<?xml version="1.0" encoding="UTF-8" standalone="no"?>
<!DOCTYPE svg PUBLIC "-//W3C//DTD SVG 1.1//EN"
"http://www.w3.org/Graphics/SVG/1.1/DTD/svg11.dtd">
<svg viewBox="0 0 909 1286" version="1.1" xmlns="http://www.w3.org/2000/svg" xmlns:xlink="http://www.w3.org/1999/xlink">
<defs>
<clipPath id="c0_4"><path d="M0,1286.2L0,0.2l909.3,0l0,1286Z" /></clipPath>
<style type="text/css"><![CDATA[
.g1_4{
fill: #FFFFFF;
}
.g2_4{
fill: none;
stroke: #000000;
stroke-width: 0.15277778;
stroke-linecap: butt;
stroke-linejoin: round;
}
]]></style>
</defs>
<g clip-path="url(#c0_4)">
<path fill-rule="evenodd" d="M0,0L909.3,0l0,1286.2L0,1286.2L0,0Z" class="g1_4" />
</g>
<path d="M163.8,14.7C90.6,14.7,17.3,87.8,17.3,161.2l0,948.3c0,73.2,73.3,146.5,146.5,146.5l586.2,0c73.3,0,146.5,-73.3,146.5,-146.5l0,-948.3C896.5,87.8,823.3,14.7,750,14.7l-586.2,0Z" class="g2_4" />
<path d="M563,233.9l0,1021.9" class="g2_4" />
<path d="M779.5,233.9l0,1021.9" class="g2_4" />
<path d="M17.3,233.9l874.8,0" class="g2_4" />
<path d="M138.6,233.9l0,1013.4" class="g2_4" />
<path d="M17.3,277.1l874.8,0" class="g2_4" />
</svg>