<?xml version="1.0" encoding="UTF-8" standalone="no"?>
<!DOCTYPE svg PUBLIC "-//W3C//DTD SVG 1.1//EN"
"http://www.w3.org/Graphics/SVG/1.1/DTD/svg11.dtd">
<svg viewBox="0 0 909 1286" version="1.1" xmlns="http://www.w3.org/2000/svg" xmlns:xlink="http://www.w3.org/1999/xlink">
<defs>
<clipPath id="c0_12"><path d="M0,1286.2L0,0.2l909.3,0l0,1286Z" /></clipPath>
<style type="text/css"><![CDATA[
.g1_12{
fill: #FFFFFF;
}
.g2_12{
fill: none;
stroke: #000000;
stroke-width: 0.15277778;
stroke-linecap: butt;
stroke-linejoin: round;
}
.g3_12{
fill: none;
stroke: #000000;
stroke-width: 0.15277778;
stroke-linecap: butt;
stroke-linejoin: round;
stroke-dasharray: 3,3;
}
]]></style>
</defs>
<g clip-path="url(#c0_12)">
<path fill-rule="evenodd" d="M0,0L909.3,0l0,1286.2L0,1286.2L0,0Z" class="g1_12" />
</g>
<path d="M93,121.3c-22.7,0,-45.3,18.6,-45.3,64.9l0,978.7c0,46.2,24.9,69.4,47.6,69.4l721,0c22.8,0,45.5,-23.2,45.5,-69.4l0,-978.7c0,-46.3,-22.7,-64.9,-45.5,-64.9L93,121.3Z" class="g2_12" />
<path d="M627,775.2c-19.4,0,-38.7,32.8,-38.7,65.5l0,321.9c0,32.9,19.3,65.7,38.7,65.7l196,0c19.4,0,38.8,-32.8,38.8,-65.7l0,-321.9C861.8,808,842.4,775.2,823,775.2l-196,0Z" class="g2_12" />
<path d="M88.8,186.8c0,4.3,-4.5,8.6,-8.9,8.6l0,34.2c4.4,0,8.9,4.3,8.9,8.6l35.3,0c0,-4.3,4.4,-8.6,8.8,-8.6l0,-34.2c-4.4,0,-8.8,-4.3,-8.8,-8.6l-35.3,0Z" class="g2_12" />
<path d="M141.5,186.8c0,4.3,-4.5,8.6,-8.7,8.6l0,34.2c4.2,0,8.7,4.3,8.7,8.6l35.4,0c0,-4.3,4.3,-8.6,8.7,-8.6l0,-34.2c-4.4,0,-8.7,-4.3,-8.7,-8.6l-35.4,0Z" class="g2_12" />
<path d="M194.3,186.8c0,4.3,-4.4,8.6,-8.8,8.6l0,34.2c4.4,0,8.8,4.3,8.8,8.6l35.3,0c0,-4.3,4.5,-8.6,8.9,-8.6l0,-34.2c-4.4,0,-8.9,-4.3,-8.9,-8.6l-35.3,0Z" class="g2_12" />
<path d="M247,186.8c0,4.3,-4.4,8.6,-8.8,8.6l0,34.2c4.4,0,8.8,4.3,8.8,8.6l35.3,0c0,-4.3,4.5,-8.6,8.9,-8.6l0,-34.2c-4.4,0,-8.9,-4.3,-8.9,-8.6l-35.3,0Z" class="g2_12" />
<path d="M301.4,185.6c0,4.2,-4.4,8.4,-8.8,8.4l0,34.3c4.4,0,8.8,4.2,8.8,8.5l35.5,0c0,-4.3,4.3,-8.5,8.7,-8.5l0,-34.3c-4.4,0,-8.7,-4.2,-8.7,-8.4l-35.5,0Z" class="g2_12" />
<path d="M354.9,186.8c-4.3,0,-8.4,4.3,-8.4,8.6l0,34.2c0,4.3,4.1,8.6,8.4,8.6l35.9,0c4.1,0,8.4,-4.3,8.4,-8.6l0,-34.2c0,-4.3,-4.3,-8.6,-8.4,-8.6l-35.9,0Z" class="g2_12" />
<path d="M413.6,186.2l86.6,0l15.3,15.2l0,21.7l-15.3,15.1l-86.6,0L398.4,223.1l0,-21.7l15.2,-15.2Z" class="g2_12" />
<path d="M459.1,186.2l0,52" class="g2_12" />
<path d="M128,251.2c-38,0,-80.3,42.3,-80.3,80.2l0,374.3c0,58.8,35.6,69.5,73.6,69.5l391.6,0c38,0,76.1,-37.9,76.1,-75.9l0,-372.4c0,-37.8,-38.1,-75.7,-76.1,-75.7l-384.9,0Z" class="g2_12" />
<path d="M627.8,472.1c-19.4,0,-38.8,21.5,-38.8,43.2l0,212.2c0,21.7,19.4,43.4,38.8,43.4l196,0c19.4,0,38.6,-21.7,38.6,-43.4l0,-212.2c0,-21.7,-19.2,-43.2,-38.6,-43.2l-196,0Z" class="g2_12" />
<path d="M128,779.5c-38,0,-80.3,36.6,-80.3,69.6l0,324.8c0,51.1,35.6,60.4,73.6,60.4l391.6,0c38,0,76.1,-33,76.1,-65.9l0,-323.1c0,-32.8,-38.1,-65.8,-76.1,-65.8l-384.9,0Z" class="g2_12" />
<path d="M51.9,515.3l537.1,0" class="g3_12" />
<path d="M51.9,472.1l537.1,0" class="g2_12" />
<path d="M51.9,627.9l537.1,0" class="g2_12" />
<path d="M281.6,515.3l0,255.6" class="g2_12" />
<path d="M337.8,606.4l246.9,0" class="g3_12" />
<path d="M51.9,584.7l532.8,0" class="g2_12" />
<path d="M112.6,606.4l169,0" class="g3_12" />
<path d="M112.6,649.6l169,0" class="g3_12" />
<path d="M593.2,848.8l264.3,0" class="g2_12" />
<path d="M112.6,692.8l169,0" class="g3_12" />
<path d="M51.9,714.5l532.8,0" class="g2_12" />
<path d="M112.6,736.2l169,0" class="g3_12" />
<path d="M51.9,541.3l532.8,0" class="g2_12" />
<path d="M155.8,515.3l0,255.6" class="g2_12" />
<path d="M112.6,515.3l0,255.6" class="g2_12" />
<path d="M186.2,515.3l0,255.6" class="g2_12" />
<path d="M216.5,515.3l0,255.6" class="g2_12" />
<path d="M246.9,515.3l0,255.6" class="g2_12" />
<path d="M459.1,251.2l4.3,225.2" class="g2_12" />
<path d="M446.1,515.3l0,255.6" class="g2_12" />
<path d="M385.5,515.3l0,255.6" class="g2_12" />
<path d="M415.7,515.3l0,255.6" class="g2_12" />
<path d="M476.4,515.3l0,255.6" class="g2_12" />
<path d="M506.8,515.3l0,255.6" class="g2_12" />
<path d="M337.8,515.3l0,255.6" class="g2_12" />
<path d="M337.8,649.6l246.9,0" class="g3_12" />
<path d="M337.8,692.8l246.9,0" class="g3_12" />
<path d="M337.8,736.2l246.9,0" class="g3_12" />
<path d="M337.8,563l246.9,0" class="g3_12" />
<path d="M112.6,563l169,0" class="g3_12" />
<path d="M537,515.3l0,255.6" class="g2_12" />
<path d="M60.7,558.7l-8.8,0l0,-17.4l17.5,0l0,17.4l-8.7,0Z" class="g3_12" />
<path d="M290.1,601.9l-8.5,0l0,-17.2l17.2,0l0,17.2l-8.7,0Z" class="g3_12" />
<path d="M290.1,645.3l-8.5,0l0,-17.4l17.2,0l0,17.4l-8.7,0Z" class="g3_12" />
<path d="M290.1,688.6l-8.5,0l0,-17.3l17.2,0l0,17.3l-8.7,0Z" class="g3_12" />
<path d="M290.1,732l-8.5,0l0,-17.5l17.2,0l0,17.5l-8.7,0Z" class="g3_12" />
<path d="M60.7,601.9l-8.8,0l0,-17.2l17.5,0l0,17.2l-8.7,0Z" class="g3_12" />
<path d="M60.7,645.3l-8.8,0l0,-17.4l17.5,0l0,17.4l-8.7,0Z" class="g3_12" />
<path d="M60.7,688.6l-8.8,0l0,-17.3l17.5,0l0,17.3l-8.7,0Z" class="g3_12" />
<path d="M60.7,732l-8.8,0l0,-17.5l17.5,0l0,17.5l-8.7,0Z" class="g3_12" />
<path d="M290.1,558.7l-8.5,0l0,-17.4l17.2,0l0,17.4l-8.7,0Z" class="g3_12" />
<path d="M52.9,671.3l536.1,0" class="g2_12" />
<path d="M705.8,818.4l0,407.2" class="g2_12" />
<path d="M749.2,818.4l0,407.2" class="g2_12" />
<path d="M662.6,818.4l0,407.2" class="g2_12" />
<path d="M792.5,818.4l0,407.2" class="g2_12" />
<path d="M593.2,900.8l264.3,0" class="g2_12" />
<path d="M593.2,926.8l264.3,0" class="g2_12" />
<path d="M593.2,952.7l264.3,0" class="g2_12" />
<path d="M593.2,978.7l264.3,0" class="g2_12" />
<path d="M593.2,1004.7l264.3,0" class="g2_12" />
<path d="M593.2,1030.6l264.3,0" class="g2_12" />
<path d="M593.2,1160.7l264.3,0" class="g2_12" />
<path d="M311.8,818.4l4.3,420.2" class="g2_12" />
<path d="M593.2,1082.7l264.3,0" class="g2_12" />
<path d="M593.2,1108.7l264.3,0" class="g2_12" />
<path d="M593.2,1134.7l264.3,0" class="g2_12" />
<path d="M593.2,1186.6l264.3,0" class="g2_12" />
<path d="M593.2,1056.8l264.3,0" class="g2_12" />
<path d="M593.2,874.8l264.3,0" class="g2_12" />
<path d="M47.7,874.8l541.3,0" class="g2_12" />
<path d="M51.9,926.8l541.3,0" class="g2_12" />
<path d="M43.2,952.7l541.5,0" class="g2_12" />
<path d="M47.7,978.7l541.3,0" class="g2_12" />
<path d="M51.9,1004.7l541.3,0" class="g2_12" />
<path d="M47.7,1030.6l541.3,0" class="g2_12" />
<path d="M51.9,1056.8l541.3,0" class="g2_12" />
<path d="M43.2,1082.7l541.5,0" class="g2_12" />
<path d="M47.7,1134.7l541.3,0" class="g2_12" />
<path d="M47.7,900.8l541.3,0" class="g2_12" />
<path d="M47.7,1160.7l541.3,0" class="g2_12" />
<path d="M47.7,1186.6l541.3,0" class="g2_12" />
<path d="M47.7,1108.7l541.3,0" class="g2_12" />
<path d="M47.7,848.8l541.3,0" class="g2_12" />
<path d="M242.5,818.4l4.4,415.9" class="g2_12" />
<path d="M515.3,818.4l4.5,415.9" class="g2_12" />
</svg>