<?xml version="1.0" encoding="UTF-8" standalone="no"?>
<!DOCTYPE svg PUBLIC "-//W3C//DTD SVG 1.1//EN"
"http://www.w3.org/Graphics/SVG/1.1/DTD/svg11.dtd">
<svg viewBox="0 0 909 1286" version="1.1" xmlns="http://www.w3.org/2000/svg" xmlns:xlink="http://www.w3.org/1999/xlink">
<defs>
<clipPath id="c0_11"><path d="M0,1286.2L0,0.2l909.3,0l0,1286Z" /></clipPath>
<style type="text/css"><![CDATA[
.g1_11{
fill: #FFFFFF;
}
.g2_11{
fill: none;
stroke: #000000;
stroke-width: 0.15277778;
stroke-linecap: butt;
stroke-linejoin: round;
}
]]></style>
</defs>
<g clip-path="url(#c0_11)">
<path fill-rule="evenodd" d="M0,0L909.3,0l0,1286.2L0,1286.2L0,0Z" class="g1_11" />
</g>
<path d="M93,121.3c-22.7,0,-45.3,22.9,-45.3,46l0,462.3c0,22.9,22.6,46,45.3,46l723.3,0c22.8,0,45.5,-23.1,45.5,-46l0,-462.3c0,-23.1,-22.7,-46,-45.5,-46L93,121.3Z" class="g2_11" />
<image preserveAspectRatio="none" x="626" y="205" width="209" height="198" xlink:href="img/1.png" />
<path d="M102.1,251.5c-27.2,0,-54.4,27.6,-54.4,55.1l0,313.8c0,27.5,27.2,55.2,54.4,55.2l431.7,0c27.4,0,54.5,-27.7,54.5,-55.2l0,-313.8c0,-27.5,-27.1,-55.1,-54.5,-55.1l-431.7,0Z" class="g2_11" />
<path d="M627,402.6c-19.4,0,-38.7,19.5,-38.7,39.1l0,192.8c0,19.5,19.3,39.3,38.7,39.3l196,0c19.4,0,38.8,-19.8,38.8,-39.3l0,-192.8c0,-19.6,-19.4,-39.1,-38.8,-39.1l-196,0Z" class="g2_11" />
<path d="M62,191.3c0,4.3,-4.4,8.5,-8.8,8.5l0,34.3c4.4,0,8.8,4.2,8.8,8.4l35.5,0c0,-4.2,4.2,-8.4,8.7,-8.4l0,-34.3c-4.5,0,-8.7,-4.2,-8.7,-8.5l-35.5,0Z" class="g2_11" />
<path d="M114.7,191.3c0,4.3,-4.4,8.5,-8.7,8.5l0,34.3c4.3,0,8.7,4.2,8.7,8.4l35.5,0c0,-4.2,4.3,-8.4,8.8,-8.4l0,-34.3c-4.5,0,-8.8,-4.2,-8.8,-8.5l-35.5,0Z" class="g2_11" />
<path d="M167.6,191.3c0,4.3,-4.4,8.5,-8.9,8.5l0,34.3c4.5,0,8.9,4.2,8.9,8.4l35.3,0c0,-4.2,4.4,-8.4,8.9,-8.4l0,-34.3c-4.5,0,-8.9,-4.2,-8.9,-8.5l-35.3,0Z" class="g2_11" />
<path d="M220.3,191.3c0,4.3,-4.4,8.5,-8.9,8.5l0,34.3c4.5,0,8.9,4.2,8.9,8.4l35.4,0c0,-4.2,4.3,-8.4,8.8,-8.4l0,-34.3c-4.5,0,-8.8,-4.2,-8.8,-8.5l-35.4,0Z" class="g2_11" />
<path d="M273.2,191.3c0,4.3,-4.5,8.5,-8.9,8.5l0,34.3c4.4,0,8.9,4.2,8.9,8.4l35.3,0c0,-4.2,4.4,-8.4,8.8,-8.4l0,-34.3c-4.4,0,-8.8,-4.2,-8.8,-8.5l-35.3,0Z" class="g2_11" />
<path d="M326.3,191.3c0,4.3,-4.2,8.5,-8.7,8.5l0,34.3c4.5,0,8.7,4.2,8.7,8.4l35.5,0c0,-4.2,4.4,-8.4,8.8,-8.4l0,-34.3c-4.4,0,-8.8,-4.2,-8.8,-8.5l-35.5,0Z" class="g2_11" />
<path d="M430.8,191c-4.1,0,-8.4,4.2,-8.4,8.5l0,34.3c0,4.2,4.3,8.5,8.4,8.5l35.9,0c4.3,0,8.6,-4.3,8.6,-8.5l0,-34.3c0,-4.3,-4.3,-8.5,-8.6,-8.5l-35.9,0Z" class="g2_11" />
<path d="M483.7,191c-4.3,0,-8.6,4.2,-8.6,8.5l0,34.3c0,4.2,4.3,8.5,8.6,8.5l35.9,0c4.1,0,8.4,-4.3,8.4,-8.5l0,-34.3c0,-4.3,-4.3,-8.5,-8.4,-8.5l-35.9,0Z" class="g2_11" />
<path d="M546,191.3c-9.1,0,-18.2,4.3,-18.2,8.5l0.4,34.3c0,4.2,9,8.5,18.1,8.4l77,-0.5c9,0,18.2,-4.4,18.2,-8.6l-0.1,-34.2c-0.2,-4.3,-9.4,-8.5,-18.4,-8.4l-77,0.5Z" class="g2_11" />
<path d="M585.1,190.4l0,51.9" class="g2_11" />
<path d="M379.3,191.3c0,4.3,-4.2,8.5,-8.7,8.5l0,34.3c4.5,0,8.7,4.2,8.7,8.4l34.7,0c0,-4.2,4.3,-8.4,8.7,-8.4l0,-34.3c-4.4,0,-8.7,-4.2,-8.7,-8.5l-34.7,0Z" class="g2_11" />
<path d="M316.3,253.2l0,420.1" class="g2_11" />
<path d="M51.6,475.6l264.7,0" class="g2_11" />
<path d="M93,675.6c-22.7,0,-45.3,23.1,-45.3,46l0,462.3c0,23,22.6,46,45.3,46l723.3,0c22.8,0,45.5,-23,45.5,-46l0,-462.3c0,-22.9,-22.7,-46,-45.5,-46L93,675.6Z" class="g2_11" />
<image preserveAspectRatio="none" x="626" y="759" width="209" height="198" xlink:href="img/2.png" />
<path d="M102.1,805.9c-27.2,0,-54.4,27.5,-54.4,55.2l0,313.6c0,27.7,27.2,55.2,54.4,55.2l431.7,0c27.4,0,54.5,-27.5,54.5,-55.2l0,-313.6c0,-27.7,-27.1,-55.2,-54.5,-55.2l-431.7,0Z" class="g2_11" />
<path d="M627,956.8c-19.4,0,-38.7,19.6,-38.7,39.3l0,192.7c0,19.7,19.3,39.2,38.7,39.2l196,0c19.4,0,38.8,-19.5,38.8,-39.2l0,-192.7c0,-19.7,-19.4,-39.3,-38.8,-39.3l-196,0Z" class="g2_11" />
<path d="M62,745.6c0,4.2,-4.4,8.5,-8.8,8.5l0,34.2c4.4,0,8.8,4.3,8.8,8.6l35.5,0c0,-4.3,4.2,-8.6,8.7,-8.6l0,-34.2c-4.5,0,-8.7,-4.3,-8.7,-8.5l-35.5,0Z" class="g2_11" />
<path d="M114.7,745.6c0,4.2,-4.4,8.5,-8.7,8.5l0,34.2c4.3,0,8.7,4.3,8.7,8.6l35.5,0c0,-4.3,4.3,-8.6,8.8,-8.6l0,-34.2c-4.5,0,-8.8,-4.3,-8.8,-8.5l-35.5,0Z" class="g2_11" />
<path d="M167.6,745.6c0,4.2,-4.4,8.5,-8.9,8.5l0,34.2c4.5,0,8.9,4.3,8.9,8.6l35.3,0c0,-4.3,4.4,-8.6,8.9,-8.6l0,-34.2c-4.5,0,-8.9,-4.3,-8.9,-8.5l-35.3,0Z" class="g2_11" />
<path d="M220.3,745.6c0,4.2,-4.4,8.5,-8.9,8.5l0,34.2c4.5,0,8.9,4.3,8.9,8.6l35.4,0c0,-4.3,4.3,-8.6,8.8,-8.6l0,-34.2c-4.5,0,-8.8,-4.3,-8.8,-8.5l-35.4,0Z" class="g2_11" />
<path d="M273.2,745.6c0,4.2,-4.5,8.5,-8.9,8.5l0,34.2c4.4,0,8.9,4.3,8.9,8.6l35.3,0c0,-4.3,4.4,-8.6,8.8,-8.6l0,-34.2c-4.4,0,-8.8,-4.3,-8.8,-8.5l-35.3,0Z" class="g2_11" />
<path d="M325.9,745.6c0,4.2,-4.5,8.5,-8.9,8.5l0,34.2c4.4,0,8.9,4.3,8.9,8.6l35.3,0c0,-4.3,4.4,-8.6,8.8,-8.6l0,-34.2c-4.4,0,-8.8,-4.3,-8.8,-8.5l-35.3,0Z" class="g2_11" />
<path d="M378.4,745.6c-4.1,0,-8.4,4.2,-8.4,8.5l0,34.2c0,4.3,4.3,8.6,8.4,8.6l35.9,0c4.3,0,8.6,-4.3,8.6,-8.6l0,-34.2c0,-4.3,-4.3,-8.5,-8.6,-8.5l-35.9,0Z" class="g2_11" />
<path d="M431.3,745.6c-4.3,0,-8.6,4.2,-8.6,8.5l0,34.2c0,4.3,4.3,8.6,8.6,8.6l35.9,0c4.1,0,8.4,-4.3,8.4,-8.6l0,-34.2c0,-4.3,-4.3,-8.5,-8.4,-8.5l-35.9,0Z" class="g2_11" />
<path d="M493.6,745.9c-9.1,0,-18.2,4.2,-18.2,8.5l0.3,34.2c0,4.3,9.1,8.6,18.2,8.4l77,-0.4c9,0,18.2,-4.4,18.2,-8.7L589,753.7c-0.2,-4.3,-9.4,-8.5,-18.4,-8.5l-77,0.7Z" class="g2_11" />
<path d="M532.7,744.9l0,52" class="g2_11" />
<path d="M316.3,807.4l0,420.2" class="g2_11" />
<path d="M51.6,1029.9l264.7,0" class="g2_11" />
</svg>