<?xml version="1.0" encoding="UTF-8" standalone="no"?>
<!DOCTYPE svg PUBLIC "-//W3C//DTD SVG 1.1//EN"
"http://www.w3.org/Graphics/SVG/1.1/DTD/svg11.dtd">
<svg viewBox="0 0 909 1286" version="1.1" xmlns="http://www.w3.org/2000/svg" xmlns:xlink="http://www.w3.org/1999/xlink">
<defs>
<clipPath id="c0_1"><path d="M0,1286.2L0,0.2l909.3,0l0,1286Z" /></clipPath>
<style type="text/css"><![CDATA[
.g1_1{
fill: #FFFFFF;
}
.g2_1{
fill: none;
stroke: #000000;
stroke-width: 0.15277778;
stroke-linecap: butt;
stroke-linejoin: round;
}
.g3_1{
}
]]></style>
</defs>
<g clip-path="url(#c0_1)">
<path fill-rule="evenodd" d="M0,0L909.3,0l0,1286.2L0,1286.2L0,0Z" class="g1_1" />
</g>
<path d="M47.4,22C34.7,22,22.2,33.8,22.2,45.4l0,94.1c0,11.8,12.5,23.5,25.2,23.5l419.5,0c12.7,0,25.2,-11.7,25.2,-23.5l0,-94.1C492.1,33.8,479.6,22,466.9,22L47.4,22Z" class="g2_1" />
<path d="M720.8,314.1l8.9,2.6l-6.3,4l10.2,0.7l-2.3,5.1l10.1,-1.2l1.4,5l8.4,-3l5.8,4.4l5.4,-4.3l8.2,3.1l1.5,-5.1l10.4,1.1l-2.4,-4.9L790.3,321l-6.1,-4l9,-2.9l-8.8,-2.6l6.2,-4l-10.2,-0.7l2.1,-5.1l-9.9,1.3l-1.5,-4.9l-8.3,2.9L757,296.7l-5.3,4.3l-8.3,-3.1l-1.7,4.9l-10.4,-1.1l2.6,4.9l-10.3,0.6l6.2,4.2l-9,2.7Z" class="g2_1" />
<path fill-rule="evenodd" d="M727.5,383.9c-2.6,0,-5,2.5,-5,5.1l0,19.8c0,2.5,2.4,5.1,5,5.1l113.5,0c2.6,0,5.1,-2.6,5.1,-5.1l0,-19.8c0,-2.6,-2.5,-5.1,-5.1,-5.1l-113.5,0Z" class="g1_1" />
<path d="M727.5,383.9c-2.6,0,-5,2.5,-5,5.1l0,19.8c0,2.5,2.4,5.1,5,5.1l113.5,0c2.6,0,5.1,-2.6,5.1,-5.1l0,-19.8c0,-2.6,-2.5,-5.1,-5.1,-5.1l-113.5,0Z" class="g2_1" />
<path fill-rule="evenodd" d="M727.1,21.7c-2.9,0,-5.8,2.9,-5.8,5.8l0,23.4c0,2.9,2.9,5.8,5.8,5.8l25.8,0c2.9,0,5.9,-2.9,5.9,-5.8l0,-23.4c0,-2.9,-3,-5.8,-5.9,-5.8l-25.8,0Z" class="g1_1" />
<path d="M727.1,21.7c-2.9,0,-5.8,2.9,-5.8,5.8l0,23.4c0,2.9,2.9,5.8,5.8,5.8l25.8,0c2.9,0,5.9,-2.9,5.9,-5.8l0,-23.4c0,-2.9,-3,-5.8,-5.9,-5.8l-25.8,0Z" class="g2_1" />
<path fill-rule="evenodd" d="M763.1,21.7c-2.3,0,-4.4,2.1,-4.4,4.4l0,17.9c0,2.1,2.1,4.4,4.4,4.4l20.5,0c2.3,0,4.4,-2.3,4.4,-4.4l0,-17.9c0,-2.3,-2.1,-4.4,-4.4,-4.4l-20.5,0Z" class="g1_1" />
<path d="M763.1,21.7c-2.3,0,-4.4,2.1,-4.4,4.4l0,17.9c0,2.1,2.1,4.4,4.4,4.4l20.5,0c2.3,0,4.4,-2.3,4.4,-4.4l0,-17.9c0,-2.3,-2.1,-4.4,-4.4,-4.4l-20.5,0Z" class="g2_1" />
<path fill-rule="evenodd" d="M792.5,21.7c-2.3,0,-4.5,2.1,-4.5,4.4L788,44c0,2.1,2.2,4.4,4.5,4.4l20.4,0c2.2,0,4.5,-2.3,4.5,-4.4l0,-17.9c0,-2.3,-2.3,-4.4,-4.5,-4.4l-20.4,0Z" class="g1_1" />
<path d="M792.5,21.7c-2.3,0,-4.5,2.1,-4.5,4.4L788,44c0,2.1,2.2,4.4,4.5,4.4l20.4,0c2.2,0,4.5,-2.3,4.5,-4.4l0,-17.9c0,-2.3,-2.3,-4.4,-4.5,-4.4l-20.4,0Z" class="g2_1" />
<path fill-rule="evenodd" d="M821.6,21.7c-2.1,0,-4.4,2.1,-4.4,4.4l0,17.9c0,2.1,2.3,4.4,4.4,4.4l20.7,0c2.1,0,4.4,-2.3,4.4,-4.4l0,-17.9c0,-2.3,-2.3,-4.4,-4.4,-4.4l-20.7,0Z" class="g1_1" />
<path d="M821.6,21.7c-2.1,0,-4.4,2.1,-4.4,4.4l0,17.9c0,2.1,2.3,4.4,4.4,4.4l20.7,0c2.1,0,4.4,-2.3,4.4,-4.4l0,-17.9c0,-2.3,-2.3,-4.4,-4.4,-4.4l-20.7,0Z" class="g2_1" />
<path fill-rule="evenodd" d="M798.4,295.8c-2.7,0,-5.6,2.7,-5.6,5.6l0,22.6c0,2.9,2.9,5.8,5.6,5.8l43.9,0c2.9,0,5.6,-2.9,5.6,-5.8l0,-22.6c0,-2.9,-2.7,-5.6,-5.6,-5.6l-43.9,0Z" class="g1_1" />
<path d="M798.4,295.8c-2.7,0,-5.6,2.7,-5.6,5.6l0,22.6c0,2.9,2.9,5.8,5.6,5.8l43.9,0c2.9,0,5.6,-2.9,5.6,-5.8l0,-22.6c0,-2.9,-2.7,-5.6,-5.6,-5.6l-43.9,0Z" class="g2_1" />
<path d="M787.1,383.9l-0.9,29.2" class="g2_1" />
<path fill-rule="evenodd" d="M727.1,59.3c-2.9,0,-5.8,2.9,-5.8,5.8l0,23.4c0,2.9,2.9,5.8,5.8,5.8l25.9,0c2.9,0,5.8,-2.9,5.8,-5.8l0,-23.4c0,-2.9,-2.9,-5.8,-5.8,-5.8l-25.9,0Z" class="g1_1" />
<path d="M727.1,59.3c-2.9,0,-5.8,2.9,-5.8,5.8l0,23.4c0,2.9,2.9,5.8,5.8,5.8l25.9,0c2.9,0,5.8,-2.9,5.8,-5.8l0,-23.4c0,-2.9,-2.9,-5.8,-5.8,-5.8l-25.9,0Z" class="g2_1" />
<path fill-rule="evenodd" d="M763.1,59.1c-2.1,0,-4.4,2.3,-4.4,4.6l0,17.7c0,2.3,2.3,4.6,4.4,4.6l20.7,0c2.1,0,4.4,-2.3,4.4,-4.6l0,-17.7c0,-2.3,-2.3,-4.6,-4.4,-4.6l-20.7,0Z" class="g1_1" />
<path d="M763.1,59.1c-2.1,0,-4.4,2.3,-4.4,4.6l0,17.7c0,2.3,2.3,4.6,4.4,4.6l20.7,0c2.1,0,4.4,-2.3,4.4,-4.6l0,-17.7c0,-2.3,-2.3,-4.6,-4.4,-4.6l-20.7,0Z" class="g2_1" />
<path fill-rule="evenodd" d="M792.5,59.3c-2.3,0,-4.5,2.1,-4.5,4.4l0,17.9c0,2.1,2.2,4.4,4.5,4.4l20.4,0c2.3,0,4.5,-2.3,4.5,-4.4l0,-17.9c0,-2.3,-2.2,-4.4,-4.5,-4.4l-20.4,0Z" class="g1_1" />
<path d="M792.5,59.3c-2.3,0,-4.5,2.1,-4.5,4.4l0,17.9c0,2.1,2.2,4.4,4.5,4.4l20.4,0c2.3,0,4.5,-2.3,4.5,-4.4l0,-17.9c0,-2.3,-2.2,-4.4,-4.5,-4.4l-20.4,0Z" class="g2_1" />
<path fill-rule="evenodd" d="M821.6,59.3c-2.1,0,-4.2,2.1,-4.2,4.4l0,17.9c0,2.1,2.1,4.4,4.2,4.4l20.7,0c2.1,0,4.4,-2.3,4.4,-4.4l0,-17.9c0,-2.3,-2.3,-4.4,-4.4,-4.4l-20.7,0Z" class="g1_1" />
<path d="M821.6,59.3c-2.1,0,-4.2,2.1,-4.2,4.4l0,17.9c0,2.1,2.1,4.4,4.2,4.4l20.7,0c2.1,0,4.4,-2.3,4.4,-4.4l0,-17.9c0,-2.3,-2.3,-4.4,-4.4,-4.4l-20.7,0Z" class="g2_1" />
<path fill-rule="evenodd" d="M726.5,97.5c-2.9,0,-5.8,2.9,-5.8,5.8l0,23.4c0,2.9,2.9,5.8,5.8,5.8l25.9,0c2.9,0,5.8,-2.9,5.8,-5.8l0,-23.4c0,-2.9,-2.9,-5.8,-5.8,-5.8l-25.9,0Z" class="g1_1" />
<path d="M726.5,97.5c-2.9,0,-5.8,2.9,-5.8,5.8l0,23.4c0,2.9,2.9,5.8,5.8,5.8l25.9,0c2.9,0,5.8,-2.9,5.8,-5.8l0,-23.4c0,-2.9,-2.9,-5.8,-5.8,-5.8l-25.9,0Z" class="g2_1" />
<path fill-rule="evenodd" d="M762.7,97.5c-2.3,0,-4.5,2.1,-4.5,4.4l0,17.7c0,2.3,2.2,4.6,4.5,4.6l20.4,0c2.2,0,4.5,-2.3,4.5,-4.6l0,-17.7c0,-2.3,-2.3,-4.4,-4.5,-4.4l-20.4,0Z" class="g1_1" />
<path d="M762.7,97.5c-2.3,0,-4.5,2.1,-4.5,4.4l0,17.7c0,2.3,2.2,4.6,4.5,4.6l20.4,0c2.2,0,4.5,-2.3,4.5,-4.6l0,-17.7c0,-2.3,-2.3,-4.4,-4.5,-4.4l-20.4,0Z" class="g2_1" />
<path fill-rule="evenodd" d="M791.8,97.5c-2.1,0,-4.4,2.1,-4.4,4.4l0,17.9c0,2.1,2.3,4.4,4.4,4.4l20.7,0c2.1,0,4.4,-2.3,4.4,-4.4l0,-17.9c0,-2.3,-2.3,-4.4,-4.4,-4.4l-20.7,0Z" class="g1_1" />
<path d="M791.8,97.5c-2.1,0,-4.4,2.1,-4.4,4.4l0,17.9c0,2.1,2.3,4.4,4.4,4.4l20.7,0c2.1,0,4.4,-2.3,4.4,-4.4l0,-17.9c0,-2.3,-2.3,-4.4,-4.4,-4.4l-20.7,0Z" class="g2_1" />
<path fill-rule="evenodd" d="M821.2,97.5c-2.3,0,-4.5,2.1,-4.5,4.4l0,17.9c0,2.1,2.2,4.4,4.5,4.4l20.5,0c2.2,0,4.4,-2.3,4.4,-4.4l0,-17.9c0,-2.3,-2.2,-4.4,-4.4,-4.4l-20.5,0Z" class="g1_1" />
<path d="M821.2,97.5c-2.3,0,-4.5,2.1,-4.5,4.4l0,17.9c0,2.1,2.2,4.4,4.5,4.4l20.5,0c2.2,0,4.4,-2.3,4.4,-4.4l0,-17.9c0,-2.3,-2.2,-4.4,-4.4,-4.4l-20.5,0Z" class="g2_1" />
<path fill-rule="evenodd" d="M727.1,136.3c-2.9,0,-5.8,2.9,-5.8,5.8l0,23.4c0,2.9,2.9,5.8,5.8,5.8l25.8,0c2.9,0,5.9,-2.9,5.9,-5.8l0,-23.4c0,-2.9,-3,-5.8,-5.9,-5.8l-25.8,0Z" class="g1_1" />
<path d="M727.1,136.3c-2.9,0,-5.8,2.9,-5.8,5.8l0,23.4c0,2.9,2.9,5.8,5.8,5.8l25.8,0c2.9,0,5.9,-2.9,5.9,-5.8l0,-23.4c0,-2.9,-3,-5.8,-5.9,-5.8l-25.8,0Z" class="g2_1" />
<path fill-rule="evenodd" d="M763.1,136.3c-2.3,0,-4.4,2.1,-4.4,4.4l0,17.9c0,2.1,2.1,4.4,4.4,4.4l20.5,0c2.3,0,4.4,-2.3,4.4,-4.4l0,-17.9c0,-2.3,-2.1,-4.4,-4.4,-4.4l-20.5,0Z" class="g1_1" />
<path d="M763.1,136.3c-2.3,0,-4.4,2.1,-4.4,4.4l0,17.9c0,2.1,2.1,4.4,4.4,4.4l20.5,0c2.3,0,4.4,-2.3,4.4,-4.4l0,-17.9c0,-2.3,-2.1,-4.4,-4.4,-4.4l-20.5,0Z" class="g2_1" />
<path fill-rule="evenodd" d="M792.5,136.3c-2.3,0,-4.5,2.3,-4.5,4.4l0,17.9c0,2.3,2.2,4.4,4.5,4.4l20.4,0c2.2,0,4.5,-2.1,4.5,-4.4l0,-17.9c0,-2.1,-2.3,-4.4,-4.5,-4.4l-20.4,0Z" class="g1_1" />
<path d="M792.5,136.3c-2.3,0,-4.5,2.3,-4.5,4.4l0,17.9c0,2.3,2.2,4.4,4.5,4.4l20.4,0c2.2,0,4.5,-2.1,4.5,-4.4l0,-17.9c0,-2.1,-2.3,-4.4,-4.5,-4.4l-20.4,0Z" class="g2_1" />
<path fill-rule="evenodd" d="M821.6,136.3c-2.1,0,-4.4,2.3,-4.4,4.4l0,17.9c0,2.3,2.3,4.4,4.4,4.4l20.7,0c2.1,0,4.4,-2.1,4.4,-4.4l0,-17.9c0,-2.1,-2.3,-4.4,-4.4,-4.4l-20.7,0Z" class="g1_1" />
<path d="M821.6,136.3c-2.1,0,-4.4,2.3,-4.4,4.4l0,17.9c0,2.3,2.3,4.4,4.4,4.4l20.7,0c2.1,0,4.4,-2.1,4.4,-4.4l0,-17.9c0,-2.1,-2.3,-4.4,-4.4,-4.4l-20.7,0Z" class="g2_1" />
<path fill-rule="evenodd" d="M727.1,173.9c-2.9,0,-5.8,2.9,-5.8,5.8l0,23.3c0,2.9,2.9,5.8,5.8,5.8l25.9,0c2.9,0,5.8,-2.9,5.8,-5.8l0,-23.3c0,-2.9,-2.9,-5.8,-5.8,-5.8l-25.9,0Z" class="g1_1" />
<path d="M727.1,173.9c-2.9,0,-5.8,2.9,-5.8,5.8l0,23.3c0,2.9,2.9,5.8,5.8,5.8l25.9,0c2.9,0,5.8,-2.9,5.8,-5.8l0,-23.3c0,-2.9,-2.9,-5.8,-5.8,-5.8l-25.9,0Z" class="g2_1" />
<path fill-rule="evenodd" d="M763.1,173.9c-2.1,0,-4.4,2.1,-4.4,4.4l0,17.9c0,2.1,2.3,4.4,4.4,4.4l20.7,0c2.1,0,4.4,-2.3,4.4,-4.4l0,-17.9c0,-2.3,-2.3,-4.4,-4.4,-4.4l-20.7,0Z" class="g1_1" />
<path d="M763.1,173.9c-2.1,0,-4.4,2.1,-4.4,4.4l0,17.9c0,2.1,2.3,4.4,4.4,4.4l20.7,0c2.1,0,4.4,-2.3,4.4,-4.4l0,-17.9c0,-2.3,-2.3,-4.4,-4.4,-4.4l-20.7,0Z" class="g2_1" />
<path fill-rule="evenodd" d="M792.5,173.9c-2.3,0,-4.5,2.1,-4.5,4.4l0,17.9c0,2.1,2.2,4.4,4.5,4.4l20.4,0c2.3,0,4.5,-2.3,4.5,-4.4l0,-17.9c0,-2.3,-2.2,-4.4,-4.5,-4.4l-20.4,0Z" class="g1_1" />
<path d="M792.5,173.9c-2.3,0,-4.5,2.1,-4.5,4.4l0,17.9c0,2.1,2.2,4.4,4.5,4.4l20.4,0c2.3,0,4.5,-2.3,4.5,-4.4l0,-17.9c0,-2.3,-2.2,-4.4,-4.5,-4.4l-20.4,0Z" class="g2_1" />
<path fill-rule="evenodd" d="M821.6,173.9c-2.1,0,-4.2,2.1,-4.2,4.4l0,17.9c0,2.1,2.1,4.4,4.2,4.4l20.7,0c2.1,0,4.4,-2.3,4.4,-4.4l0,-17.9c0,-2.3,-2.3,-4.4,-4.4,-4.4l-20.7,0Z" class="g1_1" />
<path d="M821.6,173.9c-2.1,0,-4.2,2.1,-4.2,4.4l0,17.9c0,2.1,2.1,4.4,4.2,4.4l20.7,0c2.1,0,4.4,-2.3,4.4,-4.4l0,-17.9c0,-2.3,-2.3,-4.4,-4.4,-4.4l-20.7,0Z" class="g2_1" />
<path fill-rule="evenodd" d="M726.5,212.1c-2.9,0,-5.8,2.9,-5.8,5.8l0,23.3c0,2.9,2.9,5.8,5.8,5.8l25.9,0c2.9,0,5.8,-2.9,5.8,-5.8l0,-23.3c0,-2.9,-2.9,-5.8,-5.8,-5.8l-25.9,0Z" class="g1_1" />
<path d="M726.5,212.1c-2.9,0,-5.8,2.9,-5.8,5.8l0,23.3c0,2.9,2.9,5.8,5.8,5.8l25.9,0c2.9,0,5.8,-2.9,5.8,-5.8l0,-23.3c0,-2.9,-2.9,-5.8,-5.8,-5.8l-25.9,0Z" class="g2_1" />
<path fill-rule="evenodd" d="M762.7,212.1c-2.3,0,-4.5,2.1,-4.5,4.4l0,17.9c0,2.1,2.2,4.4,4.5,4.4l20.4,0c2.2,0,4.5,-2.3,4.5,-4.4l0,-17.9c0,-2.3,-2.3,-4.4,-4.5,-4.4l-20.4,0Z" class="g1_1" />
<path d="M762.7,212.1c-2.3,0,-4.5,2.1,-4.5,4.4l0,17.9c0,2.1,2.2,4.4,4.5,4.4l20.4,0c2.2,0,4.5,-2.3,4.5,-4.4l0,-17.9c0,-2.3,-2.3,-4.4,-4.5,-4.4l-20.4,0Z" class="g2_1" />
<path fill-rule="evenodd" d="M791.8,212.1c-2.1,0,-4.4,2.1,-4.4,4.4l0,17.9c0,2.1,2.3,4.4,4.4,4.4l20.7,0c2.1,0,4.4,-2.3,4.4,-4.4l0,-17.9c0,-2.3,-2.3,-4.4,-4.4,-4.4l-20.7,0Z" class="g1_1" />
<path d="M791.8,212.1c-2.1,0,-4.4,2.1,-4.4,4.4l0,17.9c0,2.1,2.3,4.4,4.4,4.4l20.7,0c2.1,0,4.4,-2.3,4.4,-4.4l0,-17.9c0,-2.3,-2.3,-4.4,-4.4,-4.4l-20.7,0Z" class="g2_1" />
<path fill-rule="evenodd" d="M821.2,212.1c-2.3,0,-4.5,2.1,-4.5,4.4l0,17.9c0,2.1,2.2,4.4,4.5,4.4l20.5,0c2.2,0,4.4,-2.3,4.4,-4.4l0,-17.9c0,-2.3,-2.2,-4.4,-4.4,-4.4l-20.5,0Z" class="g1_1" />
<path d="M821.2,212.1c-2.3,0,-4.5,2.1,-4.5,4.4l0,17.9c0,2.1,2.2,4.4,4.5,4.4l20.5,0c2.2,0,4.4,-2.3,4.4,-4.4l0,-17.9c0,-2.3,-2.2,-4.4,-4.4,-4.4l-20.5,0Z" class="g2_1" />
<path fill-rule="evenodd" d="M727.1,250.2c-2.9,0,-5.8,3,-5.8,5.9l0,23.3c0,2.9,2.9,5.8,5.8,5.8l25.9,0c2.9,0,5.8,-2.9,5.8,-5.8l0,-23.3c0,-2.9,-2.9,-5.9,-5.8,-5.9l-25.9,0Z" class="g1_1" />
<path d="M727.1,250.2c-2.9,0,-5.8,3,-5.8,5.9l0,23.3c0,2.9,2.9,5.8,5.8,5.8l25.9,0c2.9,0,5.8,-2.9,5.8,-5.8l0,-23.3c0,-2.9,-2.9,-5.9,-5.8,-5.9l-25.9,0Z" class="g2_1" />
<path fill-rule="evenodd" d="M763.3,250.2c-2.3,0,-4.5,2.2,-4.5,4.5l0,17.9c0,2.1,2.2,4.4,4.5,4.4l20.5,0c2.2,0,4.4,-2.3,4.4,-4.4l0,-17.9c0,-2.3,-2.2,-4.5,-4.4,-4.5l-20.5,0Z" class="g1_1" />
<path d="M763.3,250.2c-2.3,0,-4.5,2.2,-4.5,4.5l0,17.9c0,2.1,2.2,4.4,4.5,4.4l20.5,0c2.2,0,4.4,-2.3,4.4,-4.4l0,-17.9c0,-2.3,-2.2,-4.5,-4.4,-4.5l-20.5,0Z" class="g2_1" />
<path fill-rule="evenodd" d="M792.5,250.2c-2.2,0,-4.5,2.2,-4.5,4.5l0,17.9c0,2.1,2.3,4.4,4.5,4.4l20.6,0c2.1,0,4.4,-2.3,4.4,-4.4l0,-17.9c0,-2.3,-2.3,-4.5,-4.4,-4.5l-20.6,0Z" class="g1_1" />
<path d="M792.5,250.2c-2.2,0,-4.5,2.2,-4.5,4.5l0,17.9c0,2.1,2.3,4.4,4.5,4.4l20.6,0c2.1,0,4.4,-2.3,4.4,-4.4l0,-17.9c0,-2.3,-2.3,-4.5,-4.4,-4.5l-20.6,0Z" class="g2_1" />
<path fill-rule="evenodd" d="M821.8,250.2c-2.1,0,-4.4,2.2,-4.4,4.5l0,17.9c0,2.1,2.3,4.4,4.4,4.4l20.5,0c2.3,0,4.5,-2.3,4.5,-4.4l0,-17.9c0,-2.3,-2.2,-4.5,-4.5,-4.5l-20.5,0Z" class="g1_1" />
<path d="M821.8,250.2c-2.1,0,-4.4,2.2,-4.4,4.5l0,17.9c0,2.1,2.3,4.4,4.4,4.4l20.5,0c2.3,0,4.5,-2.3,4.5,-4.4l0,-17.9c0,-2.3,-2.2,-4.5,-4.5,-4.5l-20.5,0Z" class="g2_1" />
<path d="M720.8,350.5l8.9,2.6l-6.3,3.9l10.2,0.8l-2.3,5l10.1,-1.2l1.4,4.9l8.4,-2.9l5.8,4.3l5.4,-4.3l8.2,3.1l1.5,-4.9l10.6,1L780.1,358l10.4,-0.7l-6.3,-4.1l9,-2.7l-8.8,-2.6l6.2,-4l-10.2,-0.8l2.3,-5l-10.1,1.2l-1.4,-5l-8.4,3L757,332.9l-5.3,4.3l-8.3,-3.1l-1.5,5.1l-10.6,-1.1l2.6,4.7l-10.2,0.8l6.1,4l-9,2.9Z" class="g2_1" />
<path fill-rule="evenodd" d="M798.4,332.1c-2.7,0,-5.6,2.8,-5.6,5.5l0,22.8c0,2.8,2.9,5.7,5.6,5.7l43.9,0c2.9,0,5.8,-2.9,5.8,-5.7l0,-22.8c0,-2.7,-2.9,-5.5,-5.8,-5.5l-43.9,0Z" class="g1_1" />
<path d="M798.4,332.1c-2.7,0,-5.6,2.8,-5.6,5.5l0,22.8c0,2.8,2.9,5.7,5.6,5.7l43.9,0c2.9,0,5.8,-2.9,5.8,-5.7l0,-22.8c0,-2.7,-2.9,-5.5,-5.8,-5.5l-43.9,0Z" class="g2_1" />
<path fill-rule="evenodd" d="M727.5,418.9c-2.6,0,-5,2.5,-5,5.1l0,19.8c0,2.6,2.4,5.1,5,5.1l113.5,0c2.6,0,5.1,-2.5,5.1,-5.1l0,-19.8c0,-2.6,-2.5,-5.1,-5.1,-5.1l-113.5,0Z" class="g1_1" />
<path d="M727.5,418.9c-2.6,0,-5,2.5,-5,5.1l0,19.8c0,2.6,2.4,5.1,5,5.1l113.5,0c2.6,0,5.1,-2.5,5.1,-5.1l0,-19.8c0,-2.6,-2.5,-5.1,-5.1,-5.1l-113.5,0Z" class="g2_1" />
<path d="M787.1,418.9l-0.9,29.4" class="g2_1" />
<path d="M874.8,485.1c0,-12.4,-18.8,-24.8,-37.6,-24.8L686.9,460.2c-18.8,0,-37.6,12.3,-37.6,24.7l-0.5,299c0,12.4,18.8,24.8,37.6,24.8l150.4,0.1c18.8,0.2,37.5,-12.4,37.5,-24.7l0.5,-299Z" class="g2_1" />
<path d="M90.8,163.6c-52.5,0,-66.7,20.3,-66.7,55l0.3,534.7c0,34.6,5.2,35.3,52.4,40.4l519.3,0c52.4,0,52.4,-21,52.4,-55.5l2.8,-517.3c0,-34.7,-30.9,-56.2,-83.3,-56.2L90.8,163.6Z" class="g2_1" />
<path fill-rule="evenodd" d="M281,209.8l-0.3,-0.2l0,-25.8l0.3,0l0.1,0l0,25.8l-0.1,0.2Z" class="g3_1" />
<path fill-rule="evenodd" d="M319.5,209.8l-0.2,-0.2l0,-25.8l0.2,0l0.3,0l0,25.8l-0.3,0.2Z" class="g3_1" />
<path fill-rule="evenodd" d="M602.3,209.8l-0.4,-0.2l0,-25.8l0.4,0l0.1,0l0,25.8l-0.1,0.2Z" class="g3_1" />
<path fill-rule="evenodd" d="M281,209.8l-0.3,0.3l-258.2,0l0,-0.3l0,-0.2l258.2,0l0.3,0.2Z" class="g3_1" />
<path fill-rule="evenodd" d="M281,235.7l-0.3,-0.1l0,-25.5l0.3,-0.3l0.1,0.3l0,25.5l-0.1,0.1Z" class="g3_1" />
<path fill-rule="evenodd" d="M319.5,209.8l-0.2,0.3l-38.2,0L281,209.8l0.1,-0.2l38.2,0l0.2,0.2Z" class="g3_1" />
<path fill-rule="evenodd" d="M319.5,235.7l-0.2,-0.1l0,-25.5l0.2,-0.3l0.3,0.3l0,25.5l-0.3,0.1Z" class="g3_1" />
<path fill-rule="evenodd" d="M602.3,209.8l-0.4,0.3l-282.1,0l-0.3,-0.3l0.3,-0.2l282.1,0l0.4,0.2Z" class="g3_1" />
<path fill-rule="evenodd" d="M602.3,235.7l-0.4,-0.1l0,-25.5l0.4,-0.3l0.1,0.3l0,25.5l-0.1,0.1Z" class="g3_1" />
<path fill-rule="evenodd" d="M646.9,209.8l0,0.3l-44.5,0l-0.1,-0.3l0.1,-0.2l44.5,0l0,0.2Z" class="g3_1" />
<path fill-rule="evenodd" d="M281,235.7l-0.3,0.3L22.5,236l0,-0.3l0,-0.1l258.2,0l0.3,0.1Z" class="g3_1" />
<path fill-rule="evenodd" d="M281,261.7l-0.3,-0.1l0,-25.6l0.3,-0.3l0.1,0.3l0,25.6l-0.1,0.1Z" class="g3_1" />
<path fill-rule="evenodd" d="M319.5,235.7l-0.2,0.3l-38.2,0L281,235.7l0.1,-0.1l38.2,0l0.2,0.1Z" class="g3_1" />
<path fill-rule="evenodd" d="M319.5,261.7l-0.2,-0.1l0,-25.6l0.2,-0.3l0.3,0.3l0,25.6l-0.3,0.1Z" class="g3_1" />
<path fill-rule="evenodd" d="M602.3,235.7l-0.4,0.3l-282.1,0l-0.3,-0.3l0.3,-0.1l282.1,0l0.4,0.1Z" class="g3_1" />
<path fill-rule="evenodd" d="M602.3,261.7l-0.4,-0.1l0,-25.6l0.4,-0.3l0.1,0.3l0,25.6l-0.1,0.1Z" class="g3_1" />
<path fill-rule="evenodd" d="M646.9,235.7l0,0.3l-44.5,0l-0.1,-0.3l0.1,-0.1l44.5,0l0,0.1Z" class="g3_1" />
<path fill-rule="evenodd" d="M281,261.7l-0.3,0.3L22.5,262l0,-0.3l0,-0.1l258.2,0l0.3,0.1Z" class="g3_1" />
<path fill-rule="evenodd" d="M281,287.7l-0.3,-0.2l0,-25.5l0.3,-0.3l0.1,0.3l0,25.5l-0.1,0.2Z" class="g3_1" />
<path fill-rule="evenodd" d="M319.5,261.7l-0.2,0.3l-38.2,0L281,261.7l0.1,-0.1l38.2,0l0.2,0.1Z" class="g3_1" />
<path fill-rule="evenodd" d="M319.5,287.7l-0.2,-0.2l0,-25.5l0.2,-0.3l0.3,0.3l0,25.5l-0.3,0.2Z" class="g3_1" />
<path fill-rule="evenodd" d="M602.3,261.7l-0.4,0.3l-282.1,0l-0.3,-0.3l0.3,-0.1l282.1,0l0.4,0.1Z" class="g3_1" />
<path fill-rule="evenodd" d="M602.3,287.7l-0.4,-0.2l0,-25.5l0.4,-0.3l0.1,0.3l0,25.5l-0.1,0.2Z" class="g3_1" />
<path fill-rule="evenodd" d="M646.9,261.7l0,0.3l-44.5,0l-0.1,-0.3l0.1,-0.1l44.5,0l0,0.1Z" class="g3_1" />
<path fill-rule="evenodd" d="M281,287.7l-0.3,0.3L22.5,288l0,-0.3l0,-0.2l258.2,0l0.3,0.2Z" class="g3_1" />
<path fill-rule="evenodd" d="M281,313.7l-0.3,-0.2l0,-25.5l0.3,-0.3l0.1,0.3l0,25.5l-0.1,0.2Z" class="g3_1" />
<path fill-rule="evenodd" d="M319.5,287.7l-0.2,0.3l-38.2,0L281,287.7l0.1,-0.2l38.2,0l0.2,0.2Z" class="g3_1" />
<path fill-rule="evenodd" d="M319.5,313.7l-0.2,-0.2l0,-25.5l0.2,-0.3l0.3,0.3l0,25.5l-0.3,0.2Z" class="g3_1" />
<path fill-rule="evenodd" d="M602.3,287.7l-0.4,0.3l-282.1,0l-0.3,-0.3l0.3,-0.2l282.1,0l0.4,0.2Z" class="g3_1" />
<path fill-rule="evenodd" d="M602.3,313.7l-0.4,-0.2l0,-25.5l0.4,-0.3l0.1,0.3l0,25.5l-0.1,0.2Z" class="g3_1" />
<path fill-rule="evenodd" d="M646.9,287.7l0,0.3l-44.5,0l-0.1,-0.3l0.1,-0.2l44.5,0l0,0.2Z" class="g3_1" />
<path fill-rule="evenodd" d="M281,313.7l-0.3,0.3L22.5,314l0,-0.3l0,-0.2l258.2,0l0.3,0.2Z" class="g3_1" />
<path fill-rule="evenodd" d="M281,339.6l-0.3,-0.1l0,-25.5l0.3,-0.3l0.1,0.3l0,25.5l-0.1,0.1Z" class="g3_1" />
<path fill-rule="evenodd" d="M319.5,313.7l-0.2,0.3l-38.2,0L281,313.7l0.1,-0.2l38.2,0l0.2,0.2Z" class="g3_1" />
<path fill-rule="evenodd" d="M319.5,339.6l-0.2,-0.1l0,-25.5l0.2,-0.3l0.3,0.3l0,25.5l-0.3,0.1Z" class="g3_1" />
<path fill-rule="evenodd" d="M602.3,313.7l-0.4,0.3l-282.1,0l-0.3,-0.3l0.3,-0.2l282.1,0l0.4,0.2Z" class="g3_1" />
<path fill-rule="evenodd" d="M602.3,339.6l-0.4,-0.1l0,-25.5l0.4,-0.3l0.1,0.3l0,25.5l-0.1,0.1Z" class="g3_1" />
<path fill-rule="evenodd" d="M646.9,313.7l0,0.3l-44.5,0l-0.1,-0.3l0.1,-0.2l44.5,0l0,0.2Z" class="g3_1" />
<path fill-rule="evenodd" d="M281,339.6l-0.3,0.3l-258.2,0l0,-0.3l0,-0.1l258.2,0l0.3,0.1Z" class="g3_1" />
<path fill-rule="evenodd" d="M281,365.8l-0.3,-0.4l0,-25.5l0.3,-0.3l0.1,0.3l0,25.5l-0.1,0.4Z" class="g3_1" />
<path fill-rule="evenodd" d="M319.5,339.6l-0.2,0.3l-38.2,0L281,339.6l0.1,-0.1l38.2,0l0.2,0.1Z" class="g3_1" />
<path fill-rule="evenodd" d="M319.5,365.8l-0.2,-0.4l0,-25.5l0.2,-0.3l0.3,0.3l0,25.5l-0.3,0.4Z" class="g3_1" />
<path fill-rule="evenodd" d="M602.3,339.6l-0.4,0.3l-282.1,0l-0.3,-0.3l0.3,-0.1l282.1,0l0.4,0.1Z" class="g3_1" />
<path fill-rule="evenodd" d="M602.3,365.8l-0.4,-0.4l0,-25.5l0.4,-0.3l0.1,0.3l0,25.5l-0.1,0.4Z" class="g3_1" />
<path fill-rule="evenodd" d="M646.9,339.6l0,0.3l-44.5,0l-0.1,-0.3l0.1,-0.1l44.5,0l0,0.1Z" class="g3_1" />
<path fill-rule="evenodd" d="M281,365.8l-0.3,0.1l-258.2,0l0,-0.1l0,-0.4l258.2,0l0.3,0.4Z" class="g3_1" />
<path fill-rule="evenodd" d="M281,391.7l-0.3,-0.3l0,-25.5l0.3,-0.1l0.1,0.1l0,25.5l-0.1,0.3Z" class="g3_1" />
<path fill-rule="evenodd" d="M319.5,365.8l-0.2,0.1l-38.2,0L281,365.8l0.1,-0.4l38.2,0l0.2,0.4Z" class="g3_1" />
<path fill-rule="evenodd" d="M319.5,391.7l-0.2,-0.3l0,-25.5l0.2,-0.1l0.3,0.1l0,25.5l-0.3,0.3Z" class="g3_1" />
<path fill-rule="evenodd" d="M602.3,365.8l-0.4,0.1l-282.1,0l-0.3,-0.1l0.3,-0.4l282.1,0l0.4,0.4Z" class="g3_1" />
<path fill-rule="evenodd" d="M602.3,391.7l-0.4,-0.3l0,-25.5l0.4,-0.1l0.1,0.1l0,25.5l-0.1,0.3Z" class="g3_1" />
<path fill-rule="evenodd" d="M646.9,365.8l0,0.1l-44.5,0l-0.1,-0.1l0.1,-0.4l44.5,0l0,0.4Z" class="g3_1" />
<path fill-rule="evenodd" d="M281,391.7l-0.3,0.2l-258.2,0l0,-0.2l0,-0.3l258.2,0l0.3,0.3Z" class="g3_1" />
<path fill-rule="evenodd" d="M281,417.7l-0.3,-0.3l0,-25.5l0.3,-0.2l0.1,0.2l0,25.5l-0.1,0.3Z" class="g3_1" />
<path fill-rule="evenodd" d="M319.5,391.7l-0.2,0.2l-38.2,0L281,391.7l0.1,-0.3l38.2,0l0.2,0.3Z" class="g3_1" />
<path fill-rule="evenodd" d="M319.5,417.7l-0.2,-0.3l0,-25.5l0.2,-0.2l0.3,0.2l0,25.5l-0.3,0.3Z" class="g3_1" />
<path fill-rule="evenodd" d="M602.3,391.7l-0.4,0.2l-282.1,0l-0.3,-0.2l0.3,-0.3l282.1,0l0.4,0.3Z" class="g3_1" />
<path fill-rule="evenodd" d="M602.3,417.7l-0.4,-0.3l0,-25.5l0.4,-0.2l0.1,0.2l0,25.5l-0.1,0.3Z" class="g3_1" />
<path fill-rule="evenodd" d="M646.9,391.7l0,0.2l-44.5,0l-0.1,-0.2l0.1,-0.3l44.5,0l0,0.3Z" class="g3_1" />
<path fill-rule="evenodd" d="M281,417.7l-0.3,0.1l-258.2,0l0,-0.1l0,-0.3l258.2,0l0.3,0.3Z" class="g3_1" />
<path fill-rule="evenodd" d="M281,443.7l-0.3,-0.3l0,-25.6l0.3,-0.1l0.1,0.1l0,25.6l-0.1,0.3Z" class="g3_1" />
<path fill-rule="evenodd" d="M319.5,417.7l-0.2,0.1l-38.2,0L281,417.7l0.1,-0.3l38.2,0l0.2,0.3Z" class="g3_1" />
<path fill-rule="evenodd" d="M319.5,443.7l-0.2,-0.3l0,-25.6l0.2,-0.1l0.3,0.1l0,25.6l-0.3,0.3Z" class="g3_1" />
<path fill-rule="evenodd" d="M602.3,417.7l-0.4,0.1l-282.1,0l-0.3,-0.1l0.3,-0.3l282.1,0l0.4,0.3Z" class="g3_1" />
<path fill-rule="evenodd" d="M602.3,443.7l-0.4,-0.3l0,-25.6l0.4,-0.1l0.1,0.1l0,25.6l-0.1,0.3Z" class="g3_1" />
<path fill-rule="evenodd" d="M646.9,417.7l0,0.1l-44.5,0l-0.1,-0.1l0.1,-0.3l44.5,0l0,0.3Z" class="g3_1" />
<path fill-rule="evenodd" d="M281,443.7l-0.3,0.1l-258.2,0l0,-0.1l0,-0.3l258.2,0l0.3,0.3Z" class="g3_1" />
<path fill-rule="evenodd" d="M281,469.6l-0.3,-0.3l0,-25.5l0.3,-0.1l0.1,0.1l0,25.5l-0.1,0.3Z" class="g3_1" />
<path fill-rule="evenodd" d="M319.5,443.7l-0.2,0.1l-38.2,0L281,443.7l0.1,-0.3l38.2,0l0.2,0.3Z" class="g3_1" />
<path fill-rule="evenodd" d="M319.5,469.6l-0.2,-0.3l0,-25.5l0.2,-0.1l0.3,0.1l0,25.5l-0.3,0.3Z" class="g3_1" />
<path fill-rule="evenodd" d="M602.3,443.7l-0.4,0.1l-282.1,0l-0.3,-0.1l0.3,-0.3l282.1,0l0.4,0.3Z" class="g3_1" />
<path fill-rule="evenodd" d="M602.3,469.6l-0.4,-0.3l0,-25.5l0.4,-0.1l0.1,0.1l0,25.5l-0.1,0.3Z" class="g3_1" />
<path fill-rule="evenodd" d="M646.9,443.7l0,0.1l-44.5,0l-0.1,-0.1l0.1,-0.3l44.5,0l0,0.3Z" class="g3_1" />
<path fill-rule="evenodd" d="M281,469.6l-0.3,0.2l-258.2,0l0,-0.2l0,-0.3l258.2,0l0.3,0.3Z" class="g3_1" />
<path fill-rule="evenodd" d="M281,495.6l-0.3,0l0,-25.8l0.3,-0.2l0.1,0.2l0,25.8l-0.1,0Z" class="g3_1" />
<path fill-rule="evenodd" d="M319.5,469.6l-0.2,0.2l-38.2,0L281,469.6l0.1,-0.3l38.2,0l0.2,0.3Z" class="g3_1" />
<path fill-rule="evenodd" d="M319.5,495.6l-0.2,0l0,-25.8l0.2,-0.2l0.3,0.2l0,25.8l-0.3,0Z" class="g3_1" />
<path fill-rule="evenodd" d="M602.3,469.6l-0.4,0.2l-282.1,0l-0.3,-0.2l0.3,-0.3l282.1,0l0.4,0.3Z" class="g3_1" />
<path fill-rule="evenodd" d="M602.3,495.6l-0.4,0l0,-25.8l0.4,-0.2l0.1,0.2l0,25.8l-0.1,0Z" class="g3_1" />
<path fill-rule="evenodd" d="M646.9,469.6l0,0.2l-44.5,0l-0.1,-0.2l0.1,-0.3l44.5,0l0,0.3Z" class="g3_1" />
<path d="M647.2,496.4l-624.1,0" class="g2_1" />
<path fill-rule="evenodd" d="M227.6,543.7l-0.3,-0.3l0,-28.1l0.3,0l0.2,0l0,28.1l-0.2,0.3Z" class="g3_1" />
<path fill-rule="evenodd" d="M285.7,543.7l-0.3,-0.3l0,-28.1l0.3,0l0.1,0l0,28.1l-0.1,0.3Z" class="g3_1" />
<path fill-rule="evenodd" d="M353.8,543.7l-0.1,-0.3l0,-28.1l0.1,0l0.3,0l0,28.1l-0.3,0.3Z" class="g3_1" />
<path fill-rule="evenodd" d="M576.4,543.7l-0.3,-0.3l0,-28.1l0.3,0l0.2,0l0,28.1l-0.2,0.3Z" class="g3_1" />
<path fill-rule="evenodd" d="M227.6,543.7l-0.3,0.2l-201.8,0l0,-0.2l0,-0.3l201.8,0l0.3,0.3Z" class="g3_1" />
<path fill-rule="evenodd" d="M227.6,572.6l-0.3,-0.3l0,-28.4l0.3,-0.2l0.2,0.2l0,28.4l-0.2,0.3Z" class="g3_1" />
<path fill-rule="evenodd" d="M285.7,543.7l-0.3,0.2l-57.6,0l-0.2,-0.2l0.2,-0.3l57.6,0l0.3,0.3Z" class="g3_1" />
<path fill-rule="evenodd" d="M285.7,572.6l-0.3,-0.3l0,-28.4l0.3,-0.2l0.1,0.2l0,28.4l-0.1,0.3Z" class="g3_1" />
<path fill-rule="evenodd" d="M353.8,543.7l-0.1,0.2l-67.9,0l-0.1,-0.2l0.1,-0.3l67.9,0l0.1,0.3Z" class="g3_1" />
<path fill-rule="evenodd" d="M353.8,572.6l-0.1,-0.3l0,-28.4l0.1,-0.2l0.3,0.2l0,28.4l-0.3,0.3Z" class="g3_1" />
<path fill-rule="evenodd" d="M576.4,543.7l-0.3,0.2l-222,0l-0.3,-0.2l0.3,-0.3l222,0l0.3,0.3Z" class="g3_1" />
<path fill-rule="evenodd" d="M576.4,572.6l-0.3,-0.3l0,-28.4l0.3,-0.2l0.2,0.2l0,28.4l-0.2,0.3Z" class="g3_1" />
<path fill-rule="evenodd" d="M648.5,543.7l0,0.2l-71.9,0l-0.2,-0.2l0.2,-0.3l71.9,0l0,0.3Z" class="g3_1" />
<path fill-rule="evenodd" d="M227.6,572.6l-0.3,0.2l-201.8,0l0,-0.2l0,-0.3l201.8,0l0.3,0.3Z" class="g3_1" />
<path fill-rule="evenodd" d="M227.6,601.5l-0.3,-0.3l0,-28.4l0.3,-0.2l0.2,0.2l0,28.4l-0.2,0.3Z" class="g3_1" />
<path fill-rule="evenodd" d="M285.7,572.6l-0.3,0.2l-57.6,0l-0.2,-0.2l0.2,-0.3l57.6,0l0.3,0.3Z" class="g3_1" />
<path fill-rule="evenodd" d="M285.7,601.5l-0.3,-0.3l0,-28.4l0.3,-0.2l0.1,0.2l0,28.4l-0.1,0.3Z" class="g3_1" />
<path fill-rule="evenodd" d="M353.8,572.6l-0.1,0.2l-67.9,0l-0.1,-0.2l0.1,-0.3l67.9,0l0.1,0.3Z" class="g3_1" />
<path fill-rule="evenodd" d="M353.8,601.5l-0.1,-0.3l0,-28.4l0.1,-0.2l0.3,0.2l0,28.4l-0.3,0.3Z" class="g3_1" />
<path fill-rule="evenodd" d="M576.4,572.6l-0.3,0.2l-222,0l-0.3,-0.2l0.3,-0.3l222,0l0.3,0.3Z" class="g3_1" />
<path fill-rule="evenodd" d="M576.4,601.5l-0.3,-0.3l0,-28.4l0.3,-0.2l0.2,0.2l0,28.4l-0.2,0.3Z" class="g3_1" />
<path fill-rule="evenodd" d="M648.5,572.6l0,0.2l-71.9,0l-0.2,-0.2l0.2,-0.3l71.9,0l0,0.3Z" class="g3_1" />
<path fill-rule="evenodd" d="M227.6,601.5l-0.3,0.1l-201.8,0l0,-0.1l0,-0.3l201.8,0l0.3,0.3Z" class="g3_1" />
<path fill-rule="evenodd" d="M227.6,630.4l-0.3,-0.3l0,-28.5l0.3,-0.1l0.2,0.1l0,28.5l-0.2,0.3Z" class="g3_1" />
<path fill-rule="evenodd" d="M285.7,601.5l-0.3,0.1l-57.6,0l-0.2,-0.1l0.2,-0.3l57.6,0l0.3,0.3Z" class="g3_1" />
<path fill-rule="evenodd" d="M285.7,630.4l-0.3,-0.3l0,-28.5l0.3,-0.1l0.1,0.1l0,28.5l-0.1,0.3Z" class="g3_1" />
<path fill-rule="evenodd" d="M353.8,601.5l-0.1,0.1l-67.9,0l-0.1,-0.1l0.1,-0.3l67.9,0l0.1,0.3Z" class="g3_1" />
<path fill-rule="evenodd" d="M353.8,630.4l-0.1,-0.3l0,-28.5l0.1,-0.1l0.3,0.1l0,28.5l-0.3,0.3Z" class="g3_1" />
<path fill-rule="evenodd" d="M576.4,601.5l-0.3,0.1l-222,0l-0.3,-0.1l0.3,-0.3l222,0l0.3,0.3Z" class="g3_1" />
<path fill-rule="evenodd" d="M576.4,630.4l-0.3,-0.3l0,-28.5l0.3,-0.1l0.2,0.1l0,28.5l-0.2,0.3Z" class="g3_1" />
<path fill-rule="evenodd" d="M648.5,601.5l0,0.1l-71.9,0l-0.2,-0.1l0.2,-0.3l71.9,0l0,0.3Z" class="g3_1" />
<path fill-rule="evenodd" d="M227.6,630.4l-0.3,0.1l-201.8,0l0,-0.1l0,-0.3l201.8,0l0.3,0.3Z" class="g3_1" />
<path fill-rule="evenodd" d="M227.6,659.2l-0.3,-0.3l0,-28.4l0.3,-0.1l0.2,0.1l0,28.4l-0.2,0.3Z" class="g3_1" />
<path fill-rule="evenodd" d="M285.7,630.4l-0.3,0.1l-57.6,0l-0.2,-0.1l0.2,-0.3l57.6,0l0.3,0.3Z" class="g3_1" />
<path fill-rule="evenodd" d="M285.7,659.2l-0.3,-0.3l0,-28.4l0.3,-0.1l0.1,0.1l0,28.4l-0.1,0.3Z" class="g3_1" />
<path fill-rule="evenodd" d="M353.8,630.4l-0.1,0.1l-67.9,0l-0.1,-0.1l0.1,-0.3l67.9,0l0.1,0.3Z" class="g3_1" />
<path fill-rule="evenodd" d="M353.8,659.2l-0.1,-0.3l0,-28.4l0.1,-0.1l0.3,0.1l0,28.4l-0.3,0.3Z" class="g3_1" />
<path fill-rule="evenodd" d="M576.4,630.4l-0.3,0.1l-222,0l-0.3,-0.1l0.3,-0.3l222,0l0.3,0.3Z" class="g3_1" />
<path fill-rule="evenodd" d="M576.4,659.2l-0.3,-0.3l0,-28.4l0.3,-0.1l0.2,0.1l0,28.4l-0.2,0.3Z" class="g3_1" />
<path fill-rule="evenodd" d="M648.5,630.4l0,0.1l-71.9,0l-0.2,-0.1l0.2,-0.3l71.9,0l0,0.3Z" class="g3_1" />
<path fill-rule="evenodd" d="M227.6,659.2l-0.3,0.2l-201.8,0l0,-0.2l0,-0.3l201.8,0l0.3,0.3Z" class="g3_1" />
<path fill-rule="evenodd" d="M227.6,688.1L227.3,688l0,-28.6l0.3,-0.2l0.2,0.2l0,28.6l-0.2,0.1Z" class="g3_1" />
<path fill-rule="evenodd" d="M285.7,659.2l-0.3,0.2l-57.6,0l-0.2,-0.2l0.2,-0.3l57.6,0l0.3,0.3Z" class="g3_1" />
<path fill-rule="evenodd" d="M285.7,688.1L285.4,688l0,-28.6l0.3,-0.2l0.1,0.2l0,28.6l-0.1,0.1Z" class="g3_1" />
<path fill-rule="evenodd" d="M353.8,659.2l-0.1,0.2l-67.9,0l-0.1,-0.2l0.1,-0.3l67.9,0l0.1,0.3Z" class="g3_1" />
<path fill-rule="evenodd" d="M353.8,688.1L353.7,688l0,-28.6l0.1,-0.2l0.3,0.2l0,28.6l-0.3,0.1Z" class="g3_1" />
<path fill-rule="evenodd" d="M576.4,659.2l-0.3,0.2l-222,0l-0.3,-0.2l0.3,-0.3l222,0l0.3,0.3Z" class="g3_1" />
<path fill-rule="evenodd" d="M576.4,688.1L576.1,688l0,-28.6l0.3,-0.2l0.2,0.2l0,28.6l-0.2,0.1Z" class="g3_1" />
<path fill-rule="evenodd" d="M648.5,659.2l0,0.2l-71.9,0l-0.2,-0.2l0.2,-0.3l71.9,0l0,0.3Z" class="g3_1" />
<path fill-rule="evenodd" d="M227.6,688.1l-0.3,0.2l-201.8,0l0,-0.2l0,-0.1l201.8,0l0.3,0.1Z" class="g3_1" />
<path fill-rule="evenodd" d="M227.6,717l-0.3,-0.2l0,-28.5l0.3,-0.2l0.2,0.2l0,28.5l-0.2,0.2Z" class="g3_1" />
<path fill-rule="evenodd" d="M285.7,688.1l-0.3,0.2l-57.6,0l-0.2,-0.2l0.2,-0.1l57.6,0l0.3,0.1Z" class="g3_1" />
<path fill-rule="evenodd" d="M285.7,717l-0.3,-0.2l0,-28.5l0.3,-0.2l0.1,0.2l0,28.5l-0.1,0.2Z" class="g3_1" />
<path fill-rule="evenodd" d="M353.8,688.1l-0.1,0.2l-67.9,0l-0.1,-0.2l0.1,-0.1l67.9,0l0.1,0.1Z" class="g3_1" />
<path fill-rule="evenodd" d="M353.8,717l-0.1,-0.2l0,-28.5l0.1,-0.2l0.3,0.2l0,28.5l-0.3,0.2Z" class="g3_1" />
<path fill-rule="evenodd" d="M576.4,688.1l-0.3,0.2l-222,0l-0.3,-0.2l0.3,-0.1l222,0l0.3,0.1Z" class="g3_1" />
<path fill-rule="evenodd" d="M576.4,717l-0.3,-0.2l0,-28.5l0.3,-0.2l0.2,0.2l0,28.5l-0.2,0.2Z" class="g3_1" />
<path fill-rule="evenodd" d="M648.5,688.1l0,0.2l-71.9,0l-0.2,-0.2l0.2,-0.1l71.9,0l0,0.1Z" class="g3_1" />
<path fill-rule="evenodd" d="M227.6,717l-0.3,0.1l-201.8,0l0,-0.1l0,-0.2l201.8,0l0.3,0.2Z" class="g3_1" />
<path fill-rule="evenodd" d="M227.6,741.9l-0.3,-0.3l0,-24.5l0.3,-0.1l0.2,0.1l0,24.5l-0.2,0.3Z" class="g3_1" />
<path fill-rule="evenodd" d="M285.7,717l-0.3,0.1l-57.6,0L227.6,717l0.2,-0.2l57.6,0l0.3,0.2Z" class="g3_1" />
<path fill-rule="evenodd" d="M285.7,741.9l-0.3,-0.3l0,-24.5l0.3,-0.1l0.1,0.1l0,24.5l-0.1,0.3Z" class="g3_1" />
<path fill-rule="evenodd" d="M353.8,717l-0.1,0.1l-67.9,0L285.7,717l0.1,-0.2l67.9,0l0.1,0.2Z" class="g3_1" />
<path fill-rule="evenodd" d="M353.8,741.9l-0.1,-0.3l0,-24.5l0.1,-0.1l0.3,0.1l0,24.5l-0.3,0.3Z" class="g3_1" />
<path fill-rule="evenodd" d="M576.4,717l-0.3,0.1l-222,0L353.8,717l0.3,-0.2l222,0l0.3,0.2Z" class="g3_1" />
<path fill-rule="evenodd" d="M576.4,741.9l-0.3,-0.3l0,-24.5l0.3,-0.1l0.2,0.1l0,24.5l-0.2,0.3Z" class="g3_1" />
<path fill-rule="evenodd" d="M648.5,717l0,0.1l-71.9,0L576.4,717l0.2,-0.2l71.9,0l0,0.2Z" class="g3_1" />
<path fill-rule="evenodd" d="M227.6,741.9l-0.3,0.1L25.5,742l0,-0.1l0,-0.3l201.8,0l0.3,0.3Z" class="g3_1" />
<path fill-rule="evenodd" d="M227.6,766.6l-0.3,-0.1l0,-24.5l0.3,-0.1l0.2,0.1l0,24.5l-0.2,0.1Z" class="g3_1" />
<path fill-rule="evenodd" d="M285.7,741.9l-0.3,0.1l-57.6,0l-0.2,-0.1l0.2,-0.3l57.6,0l0.3,0.3Z" class="g3_1" />
<path fill-rule="evenodd" d="M285.7,766.6l-0.3,-0.1l0,-24.5l0.3,-0.1l0.1,0.1l0,24.5l-0.1,0.1Z" class="g3_1" />
<path fill-rule="evenodd" d="M353.8,741.9l-0.1,0.1l-67.9,0l-0.1,-0.1l0.1,-0.3l67.9,0l0.1,0.3Z" class="g3_1" />
<path fill-rule="evenodd" d="M353.8,766.6l-0.1,-0.1l0,-24.5l0.1,-0.1l0.3,0.1l0,24.5l-0.3,0.1Z" class="g3_1" />
<path fill-rule="evenodd" d="M576.4,741.9l-0.3,0.1l-222,0l-0.3,-0.1l0.3,-0.3l222,0l0.3,0.3Z" class="g3_1" />
<path fill-rule="evenodd" d="M576.4,766.6l-0.3,-0.1l0,-24.5l0.3,-0.1l0.2,0.1l0,24.5l-0.2,0.1Z" class="g3_1" />
<path fill-rule="evenodd" d="M648.5,741.9l0,0.1l-71.9,0l-0.2,-0.1l0.2,-0.3l71.9,0l0,0.3Z" class="g3_1" />
<path fill-rule="evenodd" d="M227.6,766.6l-0.3,0.3l-201.8,0l0,-0.3l0,-0.1l201.8,0l0.3,0.1Z" class="g3_1" />
<path fill-rule="evenodd" d="M227.6,791.5l-0.3,0l0,-24.6l0.3,-0.3l0.2,0.3l0,24.6l-0.2,0Z" class="g3_1" />
<path fill-rule="evenodd" d="M285.7,766.6l-0.3,0.3l-57.6,0l-0.2,-0.3l0.2,-0.1l57.6,0l0.3,0.1Z" class="g3_1" />
<path fill-rule="evenodd" d="M285.7,791.5l-0.3,0l0,-24.6l0.3,-0.3l0.1,0.3l0,24.6l-0.1,0Z" class="g3_1" />
<path fill-rule="evenodd" d="M353.8,766.6l-0.1,0.3l-67.9,0l-0.1,-0.3l0.1,-0.1l67.9,0l0.1,0.1Z" class="g3_1" />
<path fill-rule="evenodd" d="M353.8,791.5l-0.1,0l0,-24.6l0.1,-0.3l0.3,0.3l0,24.6l-0.3,0Z" class="g3_1" />
<path fill-rule="evenodd" d="M576.4,766.6l-0.3,0.3l-222,0l-0.3,-0.3l0.3,-0.1l222,0l0.3,0.1Z" class="g3_1" />
<path fill-rule="evenodd" d="M576.4,791.5l-0.3,0l0,-24.6l0.3,-0.3l0.2,0.3l0,24.6l-0.2,0Z" class="g3_1" />
<path fill-rule="evenodd" d="M648.5,766.6l0,0.3l-71.9,0l-0.2,-0.3l0.2,-0.1l71.9,0l0,0.1Z" class="g3_1" />
<path d="M648.2,828.4c0,-16.5,-10.2,-33.3,-51.4,-33.3l-494.4,0C66.5,790.8,31.5,811.7,31.5,828.2l-1.3,400.6c0,16.5,7.7,29.9,34.7,31.6l542.2,-0.1c30.9,0,40.8,-8.6,40.8,-25.2l0.3,-406.7Z" class="g2_1" />
<path fill-rule="evenodd" d="M428.5,831l-7.6,0l0,-13l15.1,0l0,13l-7.5,0Z" class="g1_1" />
<path d="M428.5,831l-7.6,0l0,-13l15.1,0l0,13l-7.5,0Z" class="g2_1" />
<path fill-rule="evenodd" d="M448.7,831l-7.6,0l0,-13l15.2,0l0,13l-7.6,0Z" class="g1_1" />
<path d="M448.7,831l-7.6,0l0,-13l15.2,0l0,13l-7.6,0Z" class="g2_1" />
<path fill-rule="evenodd" d="M468.9,831l-7.7,0l0,-13l15.3,0l0,13l-7.6,0Z" class="g1_1" />
<path d="M468.9,831l-7.7,0l0,-13l15.3,0l0,13l-7.6,0Z" class="g2_1" />
<path fill-rule="evenodd" d="M489.2,831l-7.6,0l0,-13l15.1,0l0,13l-7.5,0Z" class="g1_1" />
<path d="M489.2,831l-7.6,0l0,-13l15.1,0l0,13l-7.5,0Z" class="g2_1" />
<path fill-rule="evenodd" d="M509.4,831l-7.7,0l0,-13l15.1,0l0,13l-7.4,0Z" class="g1_1" />
<path d="M509.4,831l-7.7,0l0,-13l15.1,0l0,13l-7.4,0Z" class="g2_1" />
<path fill-rule="evenodd" d="M155.1,901.8l-0.2,-0.1l0,-25.7l0.2,0l0.3,0l0,25.7l-0.3,0.1Z" class="g3_1" />
<path fill-rule="evenodd" d="M192,901.8l-0.1,-0.1l0,-25.7l0.1,0l0.3,0l0,25.7l-0.3,0.1Z" class="g3_1" />
<path fill-rule="evenodd" d="M225.8,901.8l-0.1,-0.1l0,-25.7l0.1,0l0.2,0l0,25.7l-0.2,0.1Z" class="g3_1" />
<path fill-rule="evenodd" d="M283.9,901.8l-0.2,-0.1l0,-25.7l0.2,0l0.3,0l0,25.7l-0.3,0.1Z" class="g3_1" />
<path fill-rule="evenodd" d="M155.1,901.8l-0.2,0.4l-123.3,0l0,-0.4l0,-0.1l123.3,0l0.2,0.1Z" class="g3_1" />
<path fill-rule="evenodd" d="M155.1,927.7l-0.2,-0.3l0,-25.2l0.2,-0.4l0.3,0.4l0,25.2l-0.3,0.3Z" class="g3_1" />
<path fill-rule="evenodd" d="M192,901.8l-0.1,0.4l-36.5,0l-0.3,-0.4l0.3,-0.1l36.5,0l0.1,0.1Z" class="g3_1" />
<path fill-rule="evenodd" d="M192,927.7l-0.1,-0.3l0,-25.2l0.1,-0.4l0.3,0.4l0,25.2l-0.3,0.3Z" class="g3_1" />
<path fill-rule="evenodd" d="M225.8,901.8l-0.1,0.4l-33.4,0L192,901.8l0.3,-0.1l33.4,0l0.1,0.1Z" class="g3_1" />
<path fill-rule="evenodd" d="M225.8,927.7l-0.1,-0.3l0,-25.2l0.1,-0.4l0.2,0.4l0,25.2l-0.2,0.3Z" class="g3_1" />
<path fill-rule="evenodd" d="M283.9,901.8l-0.2,0.4l-57.7,0l-0.2,-0.4l0.2,-0.1l57.7,0l0.2,0.1Z" class="g3_1" />
<path fill-rule="evenodd" d="M283.9,927.7l-0.2,-0.3l0,-25.2l0.2,-0.4l0.3,0.4l0,25.2l-0.3,0.3Z" class="g3_1" />
<path fill-rule="evenodd" d="M648.7,901.8l0,0.4l-364.5,0l-0.3,-0.4l0.3,-0.1l364.5,0l0,0.1Z" class="g3_1" />
<path fill-rule="evenodd" d="M155.1,927.7l-0.2,0.1l-123.3,0l0,-0.1l0,-0.3l123.3,0l0.2,0.3Z" class="g3_1" />
<path fill-rule="evenodd" d="M155.1,953.3l-0.2,-0.1l0,-25.4l0.2,-0.1l0.3,0.1l0,25.4l-0.3,0.1Z" class="g3_1" />
<path fill-rule="evenodd" d="M192,927.7l-0.1,0.1l-36.5,0l-0.3,-0.1l0.3,-0.3l36.5,0l0.1,0.3Z" class="g3_1" />
<path fill-rule="evenodd" d="M192,953.3l-0.1,-0.1l0,-25.4l0.1,-0.1l0.3,0.1l0,25.4l-0.3,0.1Z" class="g3_1" />
<path fill-rule="evenodd" d="M225.8,927.7l-0.1,0.1l-33.4,0L192,927.7l0.3,-0.3l33.4,0l0.1,0.3Z" class="g3_1" />
<path fill-rule="evenodd" d="M225.8,953.3l-0.1,-0.1l0,-25.4l0.1,-0.1l0.2,0.1l0,25.4l-0.2,0.1Z" class="g3_1" />
<path fill-rule="evenodd" d="M283.9,927.7l-0.2,0.1l-57.7,0l-0.2,-0.1l0.2,-0.3l57.7,0l0.2,0.3Z" class="g3_1" />
<path fill-rule="evenodd" d="M283.9,953.3l-0.2,-0.1l0,-25.4l0.2,-0.1l0.3,0.1l0,25.4l-0.3,0.1Z" class="g3_1" />
<path fill-rule="evenodd" d="M648.7,927.7l0,0.1l-364.5,0l-0.3,-0.1l0.3,-0.3l364.5,0l0,0.3Z" class="g3_1" />
<path fill-rule="evenodd" d="M155.1,953.3l-0.2,0.3l-123.3,0l0,-0.3l0,-0.1l123.3,0l0.2,0.1Z" class="g3_1" />
<path fill-rule="evenodd" d="M155.1,979.2L154.9,979l0,-25.4l0.2,-0.3l0.3,0.3l0,25.4l-0.3,0.2Z" class="g3_1" />
<path fill-rule="evenodd" d="M192,953.3l-0.1,0.3l-36.5,0l-0.3,-0.3l0.3,-0.1l36.5,0l0.1,0.1Z" class="g3_1" />
<path fill-rule="evenodd" d="M192,979.2L191.9,979l0,-25.4l0.1,-0.3l0.3,0.3l0,25.4l-0.3,0.2Z" class="g3_1" />
<path fill-rule="evenodd" d="M225.8,953.3l-0.1,0.3l-33.4,0L192,953.3l0.3,-0.1l33.4,0l0.1,0.1Z" class="g3_1" />
<path fill-rule="evenodd" d="M225.8,979.2L225.7,979l0,-25.4l0.1,-0.3l0.2,0.3l0,25.4l-0.2,0.2Z" class="g3_1" />
<path fill-rule="evenodd" d="M283.9,953.3l-0.2,0.3l-57.7,0l-0.2,-0.3l0.2,-0.1l57.7,0l0.2,0.1Z" class="g3_1" />
<path fill-rule="evenodd" d="M283.9,979.2L283.7,979l0,-25.4l0.2,-0.3l0.3,0.3l0,25.4l-0.3,0.2Z" class="g3_1" />
<path fill-rule="evenodd" d="M648.7,953.3l0,0.3l-364.5,0l-0.3,-0.3l0.3,-0.1l364.5,0l0,0.1Z" class="g3_1" />
<path fill-rule="evenodd" d="M155.1,979.2l-0.2,0.3l-123.3,0l0,-0.3l0,-0.2l123.3,0l0.2,0.2Z" class="g3_1" />
<path fill-rule="evenodd" d="M155.1,1005l-0.2,-0.3l0,-25.2l0.2,-0.3l0.3,0.3l0,25.2l-0.3,0.3Z" class="g3_1" />
<path fill-rule="evenodd" d="M192,979.2l-0.1,0.3l-36.5,0l-0.3,-0.3l0.3,-0.2l36.5,0l0.1,0.2Z" class="g3_1" />
<path fill-rule="evenodd" d="M192,1005l-0.1,-0.3l0,-25.2l0.1,-0.3l0.3,0.3l0,25.2L192,1005Z" class="g3_1" />
<path fill-rule="evenodd" d="M225.8,979.2l-0.1,0.3l-33.4,0L192,979.2l0.3,-0.2l33.4,0l0.1,0.2Z" class="g3_1" />
<path fill-rule="evenodd" d="M225.8,1005l-0.1,-0.3l0,-25.2l0.1,-0.3l0.2,0.3l0,25.2l-0.2,0.3Z" class="g3_1" />
<path fill-rule="evenodd" d="M283.9,979.2l-0.2,0.3l-57.7,0l-0.2,-0.3L226,979l57.7,0l0.2,0.2Z" class="g3_1" />
<path fill-rule="evenodd" d="M283.9,1005l-0.2,-0.3l0,-25.2l0.2,-0.3l0.3,0.3l0,25.2l-0.3,0.3Z" class="g3_1" />
<path fill-rule="evenodd" d="M648.7,979.2l0,0.3l-364.5,0l-0.3,-0.3l0.3,-0.2l364.5,0l0,0.2Z" class="g3_1" />
<path fill-rule="evenodd" d="M155.1,1005l-0.2,0.1l-123.3,0l0,-0.1l0,-0.3l123.3,0l0.2,0.3Z" class="g3_1" />
<path fill-rule="evenodd" d="M155.1,1030.6l-0.2,-0.1l0,-25.4l0.2,-0.1l0.3,0.1l0,25.4l-0.3,0.1Z" class="g3_1" />
<path fill-rule="evenodd" d="M192,1005l-0.1,0.1l-36.5,0l-0.3,-0.1l0.3,-0.3l36.5,0l0.1,0.3Z" class="g3_1" />
<path fill-rule="evenodd" d="M192,1030.6l-0.1,-0.1l0,-25.4L192,1005l0.3,0.1l0,25.4l-0.3,0.1Z" class="g3_1" />
<path fill-rule="evenodd" d="M225.8,1005l-0.1,0.1l-33.4,0L192,1005l0.3,-0.3l33.4,0l0.1,0.3Z" class="g3_1" />
<path fill-rule="evenodd" d="M225.8,1030.6l-0.1,-0.1l0,-25.4l0.1,-0.1l0.2,0.1l0,25.4l-0.2,0.1Z" class="g3_1" />
<path fill-rule="evenodd" d="M283.9,1005l-0.2,0.1l-57.7,0l-0.2,-0.1l0.2,-0.3l57.7,0l0.2,0.3Z" class="g3_1" />
<path fill-rule="evenodd" d="M283.9,1030.6l-0.2,-0.1l0,-25.4l0.2,-0.1l0.3,0.1l0,25.4l-0.3,0.1Z" class="g3_1" />
<path fill-rule="evenodd" d="M648.7,1005l0,0.1l-364.5,0l-0.3,-0.1l0.3,-0.3l364.5,0l0,0.3Z" class="g3_1" />
<path fill-rule="evenodd" d="M155.1,1030.6l-0.2,0.3l-123.3,0l0,-0.3l0,-0.1l123.3,0l0.2,0.1Z" class="g3_1" />
<path fill-rule="evenodd" d="M155.1,1056.5l-0.2,-0.2l0,-25.4l0.2,-0.3l0.3,0.3l0,25.4l-0.3,0.2Z" class="g3_1" />
<path fill-rule="evenodd" d="M192,1030.6l-0.1,0.3l-36.5,0l-0.3,-0.3l0.3,-0.1l36.5,0l0.1,0.1Z" class="g3_1" />
<path fill-rule="evenodd" d="M192,1056.5l-0.1,-0.2l0,-25.4l0.1,-0.3l0.3,0.3l0,25.4l-0.3,0.2Z" class="g3_1" />
<path fill-rule="evenodd" d="M225.8,1030.6l-0.1,0.3l-33.4,0l-0.3,-0.3l0.3,-0.1l33.4,0l0.1,0.1Z" class="g3_1" />
<path fill-rule="evenodd" d="M225.8,1056.5l-0.1,-0.2l0,-25.4l0.1,-0.3l0.2,0.3l0,25.4l-0.2,0.2Z" class="g3_1" />
<path fill-rule="evenodd" d="M283.9,1030.6l-0.2,0.3l-57.7,0l-0.2,-0.3l0.2,-0.1l57.7,0l0.2,0.1Z" class="g3_1" />
<path fill-rule="evenodd" d="M283.9,1056.5l-0.2,-0.2l0,-25.4l0.2,-0.3l0.3,0.3l0,25.4l-0.3,0.2Z" class="g3_1" />
<path fill-rule="evenodd" d="M648.7,1030.6l0,0.3l-364.5,0l-0.3,-0.3l0.3,-0.1l364.5,0l0,0.1Z" class="g3_1" />
<path fill-rule="evenodd" d="M155.1,1056.5l-0.2,0.3l-123.3,0l0,-0.3l0,-0.2l123.3,0l0.2,0.2Z" class="g3_1" />
<path fill-rule="evenodd" d="M155.1,1082.3l-0.2,-0.3l0,-25.2l0.2,-0.3l0.3,0.3l0,25.2l-0.3,0.3Z" class="g3_1" />
<path fill-rule="evenodd" d="M192,1056.5l-0.1,0.3l-36.5,0l-0.3,-0.3l0.3,-0.2l36.5,0l0.1,0.2Z" class="g3_1" />
<path fill-rule="evenodd" d="M192,1082.3l-0.1,-0.3l0,-25.2l0.1,-0.3l0.3,0.3l0,25.2l-0.3,0.3Z" class="g3_1" />
<path fill-rule="evenodd" d="M225.8,1056.5l-0.1,0.3l-33.4,0l-0.3,-0.3l0.3,-0.2l33.4,0l0.1,0.2Z" class="g3_1" />
<path fill-rule="evenodd" d="M225.8,1082.3l-0.1,-0.3l0,-25.2l0.1,-0.3l0.2,0.3l0,25.2l-0.2,0.3Z" class="g3_1" />
<path fill-rule="evenodd" d="M283.9,1056.5l-0.2,0.3l-57.7,0l-0.2,-0.3l0.2,-0.2l57.7,0l0.2,0.2Z" class="g3_1" />
<path fill-rule="evenodd" d="M283.9,1082.3l-0.2,-0.3l0,-25.2l0.2,-0.3l0.3,0.3l0,25.2l-0.3,0.3Z" class="g3_1" />
<path fill-rule="evenodd" d="M648.7,1056.5l0,0.3l-364.5,0l-0.3,-0.3l0.3,-0.2l364.5,0l0,0.2Z" class="g3_1" />
<path fill-rule="evenodd" d="M155.1,1082.3l-0.2,0.1l-123.3,0l0,-0.1l0,-0.3l123.3,0l0.2,0.3Z" class="g3_1" />
<path fill-rule="evenodd" d="M155.1,1107.5l-0.2,-0.3l0,-24.8l0.2,-0.1l0.3,0.1l0,24.8l-0.3,0.3Z" class="g3_1" />
<path fill-rule="evenodd" d="M192,1082.3l-0.1,0.1l-36.5,0l-0.3,-0.1l0.3,-0.3l36.5,0l0.1,0.3Z" class="g3_1" />
<path fill-rule="evenodd" d="M192,1107.5l-0.1,-0.3l0,-24.8l0.1,-0.1l0.3,0.1l0,24.8l-0.3,0.3Z" class="g3_1" />
<path fill-rule="evenodd" d="M225.8,1082.3l-0.1,0.1l-33.4,0l-0.3,-0.1l0.3,-0.3l33.4,0l0.1,0.3Z" class="g3_1" />
<path fill-rule="evenodd" d="M225.8,1107.5l-0.1,-0.3l0,-24.8l0.1,-0.1l0.2,0.1l0,24.8l-0.2,0.3Z" class="g3_1" />
<path fill-rule="evenodd" d="M283.9,1082.3l-0.2,0.1l-57.7,0l-0.2,-0.1L226,1082l57.7,0l0.2,0.3Z" class="g3_1" />
<path fill-rule="evenodd" d="M283.9,1107.5l-0.2,-0.3l0,-24.8l0.2,-0.1l0.3,0.1l0,24.8l-0.3,0.3Z" class="g3_1" />
<path fill-rule="evenodd" d="M648.7,1082.3l0,0.1l-364.5,0l-0.3,-0.1l0.3,-0.3l364.5,0l0,0.3Z" class="g3_1" />
<path fill-rule="evenodd" d="M155.1,1107.5l-0.2,0.1l-123.3,0l0,-0.1l0,-0.3l123.3,0l0.2,0.3Z" class="g3_1" />
<path fill-rule="evenodd" d="M155.1,1132.7l-0.2,-0.3l0,-24.8l0.2,-0.1l0.3,0.1l0,24.8l-0.3,0.3Z" class="g3_1" />
<path fill-rule="evenodd" d="M192,1107.5l-0.1,0.1l-36.5,0l-0.3,-0.1l0.3,-0.3l36.5,0l0.1,0.3Z" class="g3_1" />
<path fill-rule="evenodd" d="M192,1132.7l-0.1,-0.3l0,-24.8l0.1,-0.1l0.3,0.1l0,24.8l-0.3,0.3Z" class="g3_1" />
<path fill-rule="evenodd" d="M225.8,1107.5l-0.1,0.1l-33.4,0l-0.3,-0.1l0.3,-0.3l33.4,0l0.1,0.3Z" class="g3_1" />
<path fill-rule="evenodd" d="M225.8,1132.7l-0.1,-0.3l0,-24.8l0.1,-0.1l0.2,0.1l0,24.8l-0.2,0.3Z" class="g3_1" />
<path fill-rule="evenodd" d="M283.9,1107.5l-0.2,0.1l-57.7,0l-0.2,-0.1l0.2,-0.3l57.7,0l0.2,0.3Z" class="g3_1" />
<path fill-rule="evenodd" d="M283.9,1132.7l-0.2,-0.3l0,-24.8l0.2,-0.1l0.3,0.1l0,24.8l-0.3,0.3Z" class="g3_1" />
<path fill-rule="evenodd" d="M648.7,1107.5l0,0.1l-364.5,0l-0.3,-0.1l0.3,-0.3l364.5,0l0,0.3Z" class="g3_1" />
<path fill-rule="evenodd" d="M155.1,1132.7l-0.2,0.1l-123.3,0l0,-0.1l0,-0.3l123.3,0l0.2,0.3Z" class="g3_1" />
<path fill-rule="evenodd" d="M155.1,1157.9l-0.2,-0.3l0,-24.8l0.2,-0.1l0.3,0.1l0,24.8l-0.3,0.3Z" class="g3_1" />
<path fill-rule="evenodd" d="M192,1132.7l-0.1,0.1l-36.5,0l-0.3,-0.1l0.3,-0.3l36.5,0l0.1,0.3Z" class="g3_1" />
<path fill-rule="evenodd" d="M192,1157.9l-0.1,-0.3l0,-24.8l0.1,-0.1l0.3,0.1l0,24.8l-0.3,0.3Z" class="g3_1" />
<path fill-rule="evenodd" d="M225.8,1132.7l-0.1,0.1l-33.4,0l-0.3,-0.1l0.3,-0.3l33.4,0l0.1,0.3Z" class="g3_1" />
<path fill-rule="evenodd" d="M225.8,1157.9l-0.1,-0.3l0,-24.8l0.1,-0.1l0.2,0.1l0,24.8l-0.2,0.3Z" class="g3_1" />
<path fill-rule="evenodd" d="M283.9,1132.7l-0.2,0.1l-57.7,0l-0.2,-0.1l0.2,-0.3l57.7,0l0.2,0.3Z" class="g3_1" />
<path fill-rule="evenodd" d="M283.9,1157.9l-0.2,-0.3l0,-24.8l0.2,-0.1l0.3,0.1l0,24.8l-0.3,0.3Z" class="g3_1" />
<path fill-rule="evenodd" d="M648.7,1132.7l0,0.1l-364.5,0l-0.3,-0.1l0.3,-0.3l364.5,0l0,0.3Z" class="g3_1" />
<path fill-rule="evenodd" d="M155.1,1157.9l-0.2,0.2l-123.3,0l0,-0.2l0,-0.3l123.3,0l0.2,0.3Z" class="g3_1" />
<path fill-rule="evenodd" d="M155.1,1183.1l-0.2,-0.3l0,-24.7l0.2,-0.2l0.3,0.2l0,24.7l-0.3,0.3Z" class="g3_1" />
<path fill-rule="evenodd" d="M192,1157.9l-0.1,0.2l-36.5,0l-0.3,-0.2l0.3,-0.3l36.5,0l0.1,0.3Z" class="g3_1" />
<path fill-rule="evenodd" d="M192,1183.1l-0.1,-0.3l0,-24.7l0.1,-0.2l0.3,0.2l0,24.7l-0.3,0.3Z" class="g3_1" />
<path fill-rule="evenodd" d="M225.8,1157.9l-0.1,0.2l-33.4,0l-0.3,-0.2l0.3,-0.3l33.4,0l0.1,0.3Z" class="g3_1" />
<path fill-rule="evenodd" d="M225.8,1183.1l-0.1,-0.3l0,-24.7l0.1,-0.2l0.2,0.2l0,24.7l-0.2,0.3Z" class="g3_1" />
<path fill-rule="evenodd" d="M283.9,1157.9l-0.2,0.2l-57.7,0l-0.2,-0.2l0.2,-0.3l57.7,0l0.2,0.3Z" class="g3_1" />
<path fill-rule="evenodd" d="M283.9,1183.1l-0.2,-0.3l0,-24.7l0.2,-0.2l0.3,0.2l0,24.7l-0.3,0.3Z" class="g3_1" />
<path fill-rule="evenodd" d="M648.7,1157.9l0,0.2l-364.5,0l-0.3,-0.2l0.3,-0.3l364.5,0l0,0.3Z" class="g3_1" />
<path fill-rule="evenodd" d="M155.1,1183.1l-0.2,0.2l-123.3,0l0,-0.2l0,-0.3l123.3,0l0.2,0.3Z" class="g3_1" />
<path fill-rule="evenodd" d="M155.1,1208.3l-0.2,-0.3l0,-24.7l0.2,-0.2l0.3,0.2l0,24.7l-0.3,0.3Z" class="g3_1" />
<path fill-rule="evenodd" d="M192,1183.1l-0.1,0.2l-36.5,0l-0.3,-0.2l0.3,-0.3l36.5,0l0.1,0.3Z" class="g3_1" />
<path fill-rule="evenodd" d="M192,1208.3l-0.1,-0.3l0,-24.7l0.1,-0.2l0.3,0.2l0,24.7l-0.3,0.3Z" class="g3_1" />
<path fill-rule="evenodd" d="M225.8,1183.1l-0.1,0.2l-33.4,0l-0.3,-0.2l0.3,-0.3l33.4,0l0.1,0.3Z" class="g3_1" />
<path fill-rule="evenodd" d="M225.8,1208.3l-0.1,-0.3l0,-24.7l0.1,-0.2l0.2,0.2l0,24.7l-0.2,0.3Z" class="g3_1" />
<path fill-rule="evenodd" d="M283.9,1183.1l-0.2,0.2l-57.7,0l-0.2,-0.2l0.2,-0.3l57.7,0l0.2,0.3Z" class="g3_1" />
<path fill-rule="evenodd" d="M283.9,1208.3l-0.2,-0.3l0,-24.7l0.2,-0.2l0.3,0.2l0,24.7l-0.3,0.3Z" class="g3_1" />
<path fill-rule="evenodd" d="M648.7,1183.1l0,0.2l-364.5,0l-0.3,-0.2l0.3,-0.3l364.5,0l0,0.3Z" class="g3_1" />
<path fill-rule="evenodd" d="M155.1,1208.3l-0.2,0.2l-123.3,0l0,-0.2l0,-0.3l123.3,0l0.2,0.3Z" class="g3_1" />
<path fill-rule="evenodd" d="M155.1,1234l-0.2,-0.2l0,-25.3l0.2,-0.2l0.3,0.2l0,25.3l-0.3,0.2Z" class="g3_1" />
<path fill-rule="evenodd" d="M192,1208.3l-0.1,0.2l-36.5,0l-0.3,-0.2l0.3,-0.3l36.5,0l0.1,0.3Z" class="g3_1" />
<path fill-rule="evenodd" d="M192,1234l-0.1,-0.2l0,-25.3l0.1,-0.2l0.3,0.2l0,25.3L192,1234Z" class="g3_1" />
<path fill-rule="evenodd" d="M225.8,1208.3l-0.1,0.2l-33.4,0l-0.3,-0.2l0.3,-0.3l33.4,0l0.1,0.3Z" class="g3_1" />
<path fill-rule="evenodd" d="M225.8,1234l-0.1,-0.2l0,-25.3l0.1,-0.2l0.2,0.2l0,25.3l-0.2,0.2Z" class="g3_1" />
<path fill-rule="evenodd" d="M283.9,1208.3l-0.2,0.2l-57.7,0l-0.2,-0.2L226,1208l57.7,0l0.2,0.3Z" class="g3_1" />
<path fill-rule="evenodd" d="M283.9,1234l-0.2,-0.2l0,-25.3l0.2,-0.2l0.3,0.2l0,25.3l-0.3,0.2Z" class="g3_1" />
<path fill-rule="evenodd" d="M648.7,1208.3l0,0.2l-364.5,0l-0.3,-0.2l0.3,-0.3l364.5,0l0,0.3Z" class="g3_1" />
<path fill-rule="evenodd" d="M155.1,1234l-0.2,0.3l-123.3,0l0,-0.3l0,-0.2l123.3,0l0.2,0.2Z" class="g3_1" />
<path fill-rule="evenodd" d="M155.1,1259.7l-0.2,0l0,-25.4l0.2,-0.3l0.3,0.3l0,25.4l-0.3,0Z" class="g3_1" />
<path fill-rule="evenodd" d="M192,1234l-0.1,0.3l-36.5,0l-0.3,-0.3l0.3,-0.2l36.5,0l0.1,0.2Z" class="g3_1" />
<path fill-rule="evenodd" d="M192,1259.7l-0.1,0l0,-25.4L192,1234l0.3,0.3l0,25.4l-0.3,0Z" class="g3_1" />
<path fill-rule="evenodd" d="M225.8,1234l-0.1,0.3l-33.4,0L192,1234l0.3,-0.2l33.4,0l0.1,0.2Z" class="g3_1" />
<path fill-rule="evenodd" d="M225.8,1259.7l-0.1,0l0,-25.4l0.1,-0.3l0.2,0.3l0,25.4l-0.2,0Z" class="g3_1" />
<path fill-rule="evenodd" d="M283.9,1234l-0.2,0.3l-57.7,0l-0.2,-0.3l0.2,-0.2l57.7,0l0.2,0.2Z" class="g3_1" />
<path fill-rule="evenodd" d="M283.9,1259.7l-0.2,0l0,-25.4l0.2,-0.3l0.3,0.3l0,25.4l-0.3,0Z" class="g3_1" />
<path fill-rule="evenodd" d="M648.7,1234l0,0.3l-364.5,0l-0.3,-0.3l0.3,-0.2l364.5,0l0,0.2Z" class="g3_1" />
<path d="M874.8,855.7c0,-15.3,-18.8,-30.5,-37.6,-30.5L686.4,825c-18.8,0,-37.6,15.3,-37.6,30.6l-0.4,369.5c-0.2,15.3,18.6,30.7,37.6,30.7l150.8,0c18.8,0.2,37.5,-15.1,37.5,-30.4l0.5,-369.7Z" class="g2_1" />
<path d="M515.3,21.8c-11.7,0,-23.5,12,-23.5,23.7l0,94.1c0,12,11.8,23.7,23.5,23.7l108.6,0c11.8,0,23.6,-11.7,23.6,-23.7l0,-94.1c0,-11.7,-11.8,-23.7,-23.6,-23.7l-108.6,0Z" class="g2_1" />
<path fill-rule="evenodd" d="M701.7,890.4l-0.3,-0.2l0,-26.2l0.3,0l0.2,0l0,26.2l-0.2,0.2Z" class="g3_1" />
<path fill-rule="evenodd" d="M736.2,890.4l-0.1,-0.2l0,-26.2l0.1,0l0.3,0l0,26.2l-0.3,0.2Z" class="g3_1" />
<path fill-rule="evenodd" d="M770.9,890.4l-0.3,-0.2l0,-26.2l0.3,0l0.2,0l0,26.2l-0.2,0.2Z" class="g3_1" />
<path fill-rule="evenodd" d="M805.4,890.4l-0.1,-0.2l0,-26.2l0.1,0l0.4,0l0,26.2l-0.4,0.2Z" class="g3_1" />
<path fill-rule="evenodd" d="M840.1,890.4l-0.3,-0.2l0,-26.2l0.3,0l0.2,0l0,26.2l-0.2,0.2Z" class="g3_1" />
<path fill-rule="evenodd" d="M701.7,890.4l-0.3,0.3l-52.6,0l0,-0.3l0,-0.2l52.6,0l0.3,0.2Z" class="g3_1" />
<path fill-rule="evenodd" d="M701.7,917l-0.3,-0.3l0,-26l0.3,-0.3l0.2,0.3l0,26l-0.2,0.3Z" class="g3_1" />
<path fill-rule="evenodd" d="M736.2,890.4l-0.1,0.3l-34.2,0l-0.2,-0.3l0.2,-0.2l34.2,0l0.1,0.2Z" class="g3_1" />
<path fill-rule="evenodd" d="M736.2,917l-0.1,-0.3l0,-26l0.1,-0.3l0.3,0.3l0,26l-0.3,0.3Z" class="g3_1" />
<path fill-rule="evenodd" d="M770.9,890.4l-0.3,0.3l-34.1,0l-0.3,-0.3l0.3,-0.2l34.1,0l0.3,0.2Z" class="g3_1" />
<path fill-rule="evenodd" d="M770.9,917l-0.3,-0.3l0,-26l0.3,-0.3l0.2,0.3l0,26l-0.2,0.3Z" class="g3_1" />
<path fill-rule="evenodd" d="M805.4,890.4l-0.1,0.3l-34.2,0l-0.2,-0.3l0.2,-0.2l34.2,0l0.1,0.2Z" class="g3_1" />
<path fill-rule="evenodd" d="M805.4,917l-0.1,-0.3l0,-26l0.1,-0.3l0.4,0.3l0,26l-0.4,0.3Z" class="g3_1" />
<path fill-rule="evenodd" d="M840.1,890.4l-0.3,0.3l-34,0l-0.4,-0.3l0.4,-0.2l34,0l0.3,0.2Z" class="g3_1" />
<path fill-rule="evenodd" d="M840.1,917l-0.3,-0.3l0,-26l0.3,-0.3l0.2,0.3l0,26l-0.2,0.3Z" class="g3_1" />
<path fill-rule="evenodd" d="M875.1,890.4l0,0.3l-34.8,0l-0.2,-0.3l0.2,-0.2l34.8,0l0,0.2Z" class="g3_1" />
<path fill-rule="evenodd" d="M701.7,917l-0.3,0.1l-52.6,0l0,-0.1l0,-0.3l52.6,0l0.3,0.3Z" class="g3_1" />
<path fill-rule="evenodd" d="M701.7,943.4l-0.3,-0.2l0,-26.1l0.3,-0.1l0.2,0.1l0,26.1l-0.2,0.2Z" class="g3_1" />
<path fill-rule="evenodd" d="M736.2,917l-0.1,0.1l-34.2,0L701.7,917l0.2,-0.3l34.2,0l0.1,0.3Z" class="g3_1" />
<path fill-rule="evenodd" d="M736.2,943.4l-0.1,-0.2l0,-26.1l0.1,-0.1l0.3,0.1l0,26.1l-0.3,0.2Z" class="g3_1" />
<path fill-rule="evenodd" d="M770.9,917l-0.3,0.1l-34.1,0L736.2,917l0.3,-0.3l34.1,0l0.3,0.3Z" class="g3_1" />
<path fill-rule="evenodd" d="M770.9,943.4l-0.3,-0.2l0,-26.1l0.3,-0.1l0.2,0.1l0,26.1l-0.2,0.2Z" class="g3_1" />
<path fill-rule="evenodd" d="M805.4,917l-0.1,0.1l-34.2,0L770.9,917l0.2,-0.3l34.2,0l0.1,0.3Z" class="g3_1" />
<path fill-rule="evenodd" d="M805.4,943.4l-0.1,-0.2l0,-26.1l0.1,-0.1l0.4,0.1l0,26.1l-0.4,0.2Z" class="g3_1" />
<path fill-rule="evenodd" d="M840.1,917l-0.3,0.1l-34,0L805.4,917l0.4,-0.3l34,0l0.3,0.3Z" class="g3_1" />
<path fill-rule="evenodd" d="M840.1,943.4l-0.3,-0.2l0,-26.1l0.3,-0.1l0.2,0.1l0,26.1l-0.2,0.2Z" class="g3_1" />
<path fill-rule="evenodd" d="M875.1,917l0,0.1l-34.8,0L840.1,917l0.2,-0.3l34.8,0l0,0.3Z" class="g3_1" />
<path fill-rule="evenodd" d="M701.7,970l0.2,0.1l-53.1,0l0,-0.1l0,-0.3l52.6,0l0.3,0.3Z" class="g3_1" />
<path fill-rule="evenodd" d="M701.7,943.4l-0.3,0.3l-52.6,0l0,-0.3l0,-0.2l52.6,0l0.3,0.2Z" class="g3_1" />
<path fill-rule="evenodd" d="M701.7,970l-0.3,-0.3l0,-26l0.3,-0.3l0.2,0.3l0,26l-0.2,0.3Z" class="g3_1" />
<path fill-rule="evenodd" d="M736.2,970l0.3,0.1l-35.1,0l0.3,-0.1l0.2,-0.3l34.2,0l0.1,0.3Z" class="g3_1" />
<path fill-rule="evenodd" d="M736.2,943.4l-0.1,0.3l-34.2,0l-0.2,-0.3l0.2,-0.2l34.2,0l0.1,0.2Z" class="g3_1" />
<path fill-rule="evenodd" d="M736.2,970l-0.1,-0.3l0,-26l0.1,-0.3l0.3,0.3l0,26l-0.3,0.3Z" class="g3_1" />
<path fill-rule="evenodd" d="M770.9,970l0.2,0.1l-35,0l0.1,-0.1l0.3,-0.3l34.1,0l0.3,0.3Z" class="g3_1" />
<path fill-rule="evenodd" d="M770.9,943.4l-0.3,0.3l-34.1,0l-0.3,-0.3l0.3,-0.2l34.1,0l0.3,0.2Z" class="g3_1" />
<path fill-rule="evenodd" d="M770.9,970l-0.3,-0.3l0,-26l0.3,-0.3l0.2,0.3l0,26l-0.2,0.3Z" class="g3_1" />
<path fill-rule="evenodd" d="M805.4,970l0.4,0.1l-35.2,0l0.3,-0.1l0.2,-0.3l34.2,0l0.1,0.3Z" class="g3_1" />
<path fill-rule="evenodd" d="M805.4,943.4l-0.1,0.3l-34.2,0l-0.2,-0.3l0.2,-0.2l34.2,0l0.1,0.2Z" class="g3_1" />
<path fill-rule="evenodd" d="M805.4,970l-0.1,-0.3l0,-26l0.1,-0.3l0.4,0.3l0,26l-0.4,0.3Z" class="g3_1" />
<path fill-rule="evenodd" d="M840.1,970l0.2,0.1l-35,0l0.1,-0.1l0.4,-0.3l34,0l0.3,0.3Z" class="g3_1" />
<path fill-rule="evenodd" d="M840.1,943.4l-0.3,0.3l-34,0l-0.4,-0.3l0.4,-0.2l34,0l0.3,0.2Z" class="g3_1" />
<path fill-rule="evenodd" d="M840.1,970l-0.3,-0.3l0,-26l0.3,-0.3l0.2,0.3l0,26l-0.2,0.3Z" class="g3_1" />
<path fill-rule="evenodd" d="M875.1,970l0,0.1l-35.3,0l0.3,-0.1l0.2,-0.3l34.8,0l0,0.3Z" class="g3_1" />
<path fill-rule="evenodd" d="M875.1,943.4l0,0.3l-34.8,0l-0.2,-0.3l0.2,-0.2l34.8,0l0,0.2Z" class="g3_1" />
<path fill-rule="evenodd" d="M754.1,1016.9l-0.3,-0.3l0,-26.3l0.3,0l0.2,0l0,26.3l-0.2,0.3Z" class="g3_1" />
<path fill-rule="evenodd" d="M794.1,1016.9l-0.1,-0.3l0,-26.3l0.1,0l0.3,0l0,26.3l-0.3,0.3Z" class="g3_1" />
<path fill-rule="evenodd" d="M834.3,1016.9l-0.1,-0.3l0,-26.3l0.1,0l0.3,0l0,26.3l-0.3,0.3Z" class="g3_1" />
<path fill-rule="evenodd" d="M874.5,1016.9l-0.2,-0.3l0,-26.3l0.2,0l0.2,0l0,26.7l-0.2,-0.1Z" class="g3_1" />
<path fill-rule="evenodd" d="M754.1,1016.9l-0.3,0.1l-105.7,0l0,-0.1l0,-0.3l105.7,0l0.3,0.3Z" class="g3_1" />
<path fill-rule="evenodd" d="M754.1,1043.5l-0.3,-0.3l0,-26.2l0.3,-0.1l0.2,0.1l0,26.2l-0.2,0.3Z" class="g3_1" />
<path fill-rule="evenodd" d="M794.1,1016.9L794,1017l-39.7,0l-0.2,-0.1l0.2,-0.3l39.7,0l0.1,0.3Z" class="g3_1" />
<path fill-rule="evenodd" d="M794.1,1043.5l-0.1,-0.3l0,-26.2l0.1,-0.1l0.3,0.1l0,26.2l-0.3,0.3Z" class="g3_1" />
<path fill-rule="evenodd" d="M834.3,1016.9l-0.1,0.1l-39.8,0l-0.3,-0.1l0.3,-0.3l39.8,0l0.1,0.3Z" class="g3_1" />
<path fill-rule="evenodd" d="M834.3,1043.5l-0.1,-0.3l0,-26.2l0.1,-0.1l0.3,0.1l0,26.2l-0.3,0.3Z" class="g3_1" />
<path fill-rule="evenodd" d="M874.5,1043.5l-0.2,-0.3l0,-26.2l0.2,-0.1l0.2,-0.3l0,27l-0.2,-0.1Z" class="g3_1" />
<path fill-rule="evenodd" d="M874.5,1016.9l-0.2,0.1l-39.7,0l-0.3,-0.1l0.3,-0.3l39.7,0l0.2,0.3Z" class="g3_1" />
<path fill-rule="evenodd" d="M754.1,1043.5l-0.3,0.1l-105.7,0l0,-0.1l0,-0.3l105.7,0l0.3,0.3Z" class="g3_1" />
<path fill-rule="evenodd" d="M754.1,1069.9l-0.3,-0.1l0,-26.2l0.3,-0.1l0.2,0.1l0,26.2l-0.2,0.1Z" class="g3_1" />
<path fill-rule="evenodd" d="M794.1,1043.5l-0.1,0.1l-39.7,0l-0.2,-0.1l0.2,-0.3l39.7,0l0.1,0.3Z" class="g3_1" />
<path fill-rule="evenodd" d="M794.1,1069.9l-0.1,-0.1l0,-26.2l0.1,-0.1l0.3,0.1l0,26.2l-0.3,0.1Z" class="g3_1" />
<path fill-rule="evenodd" d="M834.3,1043.5l-0.1,0.1l-39.8,0l-0.3,-0.1l0.3,-0.3l39.8,0l0.1,0.3Z" class="g3_1" />
<path fill-rule="evenodd" d="M834.3,1069.9l-0.1,-0.1l0,-26.2l0.1,-0.1l0.3,0.1l0,26.2l-0.3,0.1Z" class="g3_1" />
<path fill-rule="evenodd" d="M874.5,1069.9l-0.2,-0.1l0,-26.2l0.2,-0.1l0.2,-0.3l0,27l-0.2,-0.3Z" class="g3_1" />
<path fill-rule="evenodd" d="M874.5,1043.5l-0.2,0.1l-39.7,0l-0.3,-0.1l0.3,-0.3l39.7,0l0.2,0.3Z" class="g3_1" />
<path fill-rule="evenodd" d="M754.1,1096.5l0.2,0.3l-106.2,0l0,-0.3l0,-0.2l105.7,0l0.3,0.2Z" class="g3_1" />
<path fill-rule="evenodd" d="M754.1,1069.9l-0.3,0.3l-105.7,0l0,-0.3l0,-0.1l105.7,0l0.3,0.1Z" class="g3_1" />
<path fill-rule="evenodd" d="M754.1,1096.5l-0.3,-0.2l0,-26.1l0.3,-0.3l0.2,0.3l0,26.1l-0.2,0.2Z" class="g3_1" />
<path fill-rule="evenodd" d="M794.1,1096.5l0.3,0.3l-40.6,0l0.3,-0.3l0.2,-0.2l39.7,0l0.1,0.2Z" class="g3_1" />
<path fill-rule="evenodd" d="M794.1,1069.9l-0.1,0.3l-39.7,0l-0.2,-0.3l0.2,-0.1l39.7,0l0.1,0.1Z" class="g3_1" />
<path fill-rule="evenodd" d="M794.1,1096.5l-0.1,-0.2l0,-26.1l0.1,-0.3l0.3,0.3l0,26.1l-0.3,0.2Z" class="g3_1" />
<path fill-rule="evenodd" d="M834.3,1096.5l0.3,0.3l-40.6,0l0.1,-0.3l0.3,-0.2l39.8,0l0.1,0.2Z" class="g3_1" />
<path fill-rule="evenodd" d="M834.3,1069.9l-0.1,0.3l-39.8,0l-0.3,-0.3l0.3,-0.1l39.8,0l0.1,0.1Z" class="g3_1" />
<path fill-rule="evenodd" d="M834.3,1096.5l-0.1,-0.2l0,-26.1l0.1,-0.3l0.3,0.3l0,26.1l-0.3,0.2Z" class="g3_1" />
<path fill-rule="evenodd" d="M874.5,1096.5l0.2,0.3l-40.5,0l0.1,-0.3l0.3,-0.2l39.7,0l0.2,0.2Z" class="g3_1" />
<path fill-rule="evenodd" d="M874.5,1096.5l-0.2,-0.2l0,-26.1l0.2,-0.3l0.2,-0.1l0,27l-0.2,-0.3Z" class="g3_1" />
<path fill-rule="evenodd" d="M874.5,1069.9l-0.2,0.3l-39.7,0l-0.3,-0.3l0.3,-0.1l39.7,0l0.2,0.1Z" class="g3_1" />
<path fill-rule="evenodd" d="M755,1160.2l-0.1,-0.2l0,-26.4l0.1,0l0.2,0l0,26.4l-0.2,0.2Z" class="g3_1" />
<path fill-rule="evenodd" d="M795.2,1160.2l-0.3,-0.2l0,-26.4l0.3,0l0.2,0l0,26.4l-0.2,0.2Z" class="g3_1" />
<path fill-rule="evenodd" d="M835.2,1160.2l-0.1,-0.2l0,-26.4l0.1,0l0.3,0l0,26.4l-0.3,0.2Z" class="g3_1" />
<path fill-rule="evenodd" d="M875.6,1160.2l-0.2,-0.2l0,-26.4l0.2,0l0.3,0l0,26.7l-0.3,-0.1Z" class="g3_1" />
<path fill-rule="evenodd" d="M755,1160.2l-0.1,0.1l-105.9,0l0,-0.1l0,-0.2l105.9,0l0.1,0.2Z" class="g3_1" />
<path fill-rule="evenodd" d="M755,1186.8l-0.1,-0.2l0,-26.3l0.1,-0.1l0.2,0.1l0,26.3l-0.2,0.2Z" class="g3_1" />
<path fill-rule="evenodd" d="M795.2,1160.2l-0.3,0.1l-39.7,0l-0.2,-0.1l0.2,-0.2l39.7,0l0.3,0.2Z" class="g3_1" />
<path fill-rule="evenodd" d="M795.2,1186.8l-0.3,-0.2l0,-26.3l0.3,-0.1l0.2,0.1l0,26.3l-0.2,0.2Z" class="g3_1" />
<path fill-rule="evenodd" d="M835.2,1160.2l-0.1,0.1l-39.7,0l-0.2,-0.1l0.2,-0.2l39.7,0l0.1,0.2Z" class="g3_1" />
<path fill-rule="evenodd" d="M835.2,1186.8l-0.1,-0.2l0,-26.3l0.1,-0.1l0.3,0.1l0,26.3l-0.3,0.2Z" class="g3_1" />
<path fill-rule="evenodd" d="M875.6,1186.8l-0.2,-0.2l0,-26.3l0.2,-0.1l0.3,-0.2l0,26.9l-0.3,-0.1Z" class="g3_1" />
<path fill-rule="evenodd" d="M875.6,1160.2l-0.2,0.1l-39.9,0l-0.3,-0.1l0.3,-0.2l39.9,0l0.2,0.2Z" class="g3_1" />
<path fill-rule="evenodd" d="M755,1213.4l0.2,0.3l-106.2,0l0,-0.3l0,-0.2l105.9,0l0.1,0.2Z" class="g3_1" />
<path fill-rule="evenodd" d="M755,1186.8l-0.1,0.1l-105.9,0l0,-0.1l0,-0.2l105.9,0l0.1,0.2Z" class="g3_1" />
<path fill-rule="evenodd" d="M755,1213.4l-0.1,-0.2l0,-26.3l0.1,-0.1l0.2,0.1l0,26.3l-0.2,0.2Z" class="g3_1" />
<path fill-rule="evenodd" d="M795.2,1213.4l0.2,0.3l-40.5,0l0.1,-0.3l0.2,-0.2l39.7,0l0.3,0.2Z" class="g3_1" />
<path fill-rule="evenodd" d="M795.2,1186.8l-0.3,0.1l-39.7,0l-0.2,-0.1l0.2,-0.2l39.7,0l0.3,0.2Z" class="g3_1" />
<path fill-rule="evenodd" d="M795.2,1213.4l-0.3,-0.2l0,-26.3l0.3,-0.1l0.2,0.1l0,26.3l-0.2,0.2Z" class="g3_1" />
<path fill-rule="evenodd" d="M835.2,1213.4l0.3,0.3l-40.6,0l0.3,-0.3l0.2,-0.2l39.7,0l0.1,0.2Z" class="g3_1" />
<path fill-rule="evenodd" d="M835.2,1186.8l-0.1,0.1l-39.7,0l-0.2,-0.1l0.2,-0.2l39.7,0l0.1,0.2Z" class="g3_1" />
<path fill-rule="evenodd" d="M835.2,1213.4l-0.1,-0.2l0,-26.3l0.1,-0.1l0.3,0.1l0,26.3l-0.3,0.2Z" class="g3_1" />
<path fill-rule="evenodd" d="M875.6,1213.4l0.3,0.3l-40.8,0l0.1,-0.3l0.3,-0.2l39.9,0l0.2,0.2Z" class="g3_1" />
<path fill-rule="evenodd" d="M875.6,1213.4l-0.2,-0.2l0,-26.3l0.2,-0.1l0.3,-0.2l0,27.1l-0.3,-0.3Z" class="g3_1" />
<path fill-rule="evenodd" d="M875.6,1186.8l-0.2,0.1l-39.9,0l-0.3,-0.1l0.3,-0.2l39.9,0l0.2,0.2Z" class="g3_1" />
</svg>