<?xml version="1.0" encoding="UTF-8" standalone="no"?>
<!DOCTYPE svg PUBLIC "-//W3C//DTD SVG 1.1//EN"
"http://www.w3.org/Graphics/SVG/1.1/DTD/svg11.dtd">
<svg viewBox="0 0 909 1286" version="1.1" xmlns="http://www.w3.org/2000/svg" xmlns:xlink="http://www.w3.org/1999/xlink">
<defs>
<clipPath id="c0_13"><path d="M0,1286.2L0,0.2l909.3,0l0,1286Z" /></clipPath>
<style type="text/css"><![CDATA[
.g1_13{
fill: #FFFFFF;
}
.g2_13{
fill: none;
stroke: #000000;
stroke-width: 0.15277778;
stroke-linecap: butt;
stroke-linejoin: round;
}
]]></style>
</defs>
<g clip-path="url(#c0_13)">
<path fill-rule="evenodd" d="M0,0L909.3,0l0,1286.2L0,1286.2L0,0Z" class="g1_13" />
</g>
<path d="M93,121.3c-22.7,0,-45.3,22.9,-45.3,46l0,462.3c0,22.9,22.6,46,45.3,46l723.3,0c22.8,0,45.5,-23.1,45.5,-46l0,-462.3c0,-23.1,-22.7,-46,-45.5,-46L93,121.3Z" class="g2_13" />
<image preserveAspectRatio="none" x="626" y="205" width="209" height="198" xlink:href="img/1.png" />
<path d="M102.1,251.5c-27.2,0,-54.4,27.6,-54.4,55.1l0,313.8c0,27.5,27.2,55.2,54.4,55.2l431.7,0c27.4,0,54.5,-27.7,54.5,-55.2l0,-313.8c0,-27.5,-27.1,-55.1,-54.5,-55.1l-431.7,0Z" class="g2_13" />
<path d="M627,402.6c-19.4,0,-38.7,19.5,-38.7,39.1l0,192.8c0,19.5,19.3,39.3,38.7,39.3l196,0c19.4,0,38.8,-19.8,38.8,-39.3l0,-192.8c0,-19.6,-19.4,-39.1,-38.8,-39.1l-196,0Z" class="g2_13" />
<path d="M62,191.3c0,4.3,-4.4,8.5,-8.8,8.5l0,34.3c4.4,0,8.8,4.2,8.8,8.4l35.5,0c0,-4.2,4.2,-8.4,8.7,-8.4l0,-34.3c-4.5,0,-8.7,-4.2,-8.7,-8.5l-35.5,0Z" class="g2_13" />
<path d="M114.7,191.3c0,4.3,-4.4,8.5,-8.7,8.5l0,34.3c4.3,0,8.7,4.2,8.7,8.4l35.5,0c0,-4.2,4.3,-8.4,8.8,-8.4l0,-34.3c-4.5,0,-8.8,-4.2,-8.8,-8.5l-35.5,0Z" class="g2_13" />
<path d="M167.6,191.3c0,4.3,-4.4,8.5,-8.9,8.5l0,34.3c4.5,0,8.9,4.2,8.9,8.4l35.3,0c0,-4.2,4.4,-8.4,8.9,-8.4l0,-34.3c-4.5,0,-8.9,-4.2,-8.9,-8.5l-35.3,0Z" class="g2_13" />
<path d="M220.3,191.3c0,4.3,-4.4,8.5,-8.9,8.5l0,34.3c4.5,0,8.9,4.2,8.9,8.4l35.4,0c0,-4.2,4.3,-8.4,8.8,-8.4l0,-34.3c-4.5,0,-8.8,-4.2,-8.8,-8.5l-35.4,0Z" class="g2_13" />
<path d="M273.2,191.3c0,4.3,-4.5,8.5,-8.9,8.5l0,34.3c4.4,0,8.9,4.2,8.9,8.4l35.3,0c0,-4.2,4.4,-8.4,8.8,-8.4l0,-34.3c-4.4,0,-8.8,-4.2,-8.8,-8.5l-35.3,0Z" class="g2_13" />
<path d="M325.9,191.3c0,4.3,-4.5,8.5,-8.9,8.5l0,34.3c4.4,0,8.9,4.2,8.9,8.4l35.3,0c0,-4.2,4.4,-8.4,8.8,-8.4l0,-34.3c-4.4,0,-8.8,-4.2,-8.8,-8.5l-35.3,0Z" class="g2_13" />
<path d="M378.4,191.3c-4.1,0,-8.4,4.3,-8.4,8.5l0,34.3c0,4.1,4.3,8.4,8.4,8.4l35.9,0c4.3,0,8.6,-4.3,8.6,-8.4l0,-34.3c0,-4.2,-4.3,-8.5,-8.6,-8.5l-35.9,0Z" class="g2_13" />
<path d="M431.3,191.3c-4.3,0,-8.6,4.3,-8.6,8.5l0,34.3c0,4.1,4.3,8.4,8.6,8.4l35.9,0c4.1,0,8.4,-4.3,8.4,-8.4l0,-34.3c0,-4.2,-4.3,-8.5,-8.4,-8.5l-35.9,0Z" class="g2_13" />
<path d="M493.6,191.4c-9.1,0.2,-18.2,4.5,-18.2,8.7l0.3,34.3c0,4.2,9.1,8.4,18.2,8.4l77,-0.5c9,-0.1,18.2,-4.4,18.2,-8.7L589,199.4c-0.2,-4.3,-9.4,-8.4,-18.4,-8.4l-77,0.4Z" class="g2_13" />
<path d="M532.7,190.5l0,52" class="g2_13" />
<path d="M316.3,253.2l0,420.1" class="g2_13" />
<path d="M51.6,475.6l264.7,0" class="g2_13" />
<path d="M316.1,428.7l268.6,0" class="g2_13" />
<path d="M93,679.9c-22.7,0,-45.3,23,-45.3,46.1l0,462.2c0,23,22.6,45.9,45.3,45.9l723.3,0c22.8,0,45.5,-22.9,45.5,-45.9l0,-462.2c0,-23.1,-22.7,-46.1,-45.5,-46.1L93,679.9Z" class="g2_13" />
<image preserveAspectRatio="none" x="626" y="764" width="209" height="197" xlink:href="img/2.png" />
<path d="M102.1,810.2c-27.2,0,-54.4,27.5,-54.4,55.1l0,313.7c0,27.6,27.2,55.3,54.4,55.3l431.7,0c27.4,0,54.5,-27.7,54.5,-55.3l0,-313.7c0,-27.6,-27.1,-55.1,-54.5,-55.1l-431.7,0Z" class="g2_13" />
<path d="M627,961.1c-19.4,0,-38.7,19.7,-38.7,39.3l0,192.6c0,19.8,19.3,39.5,38.7,39.5l196,0c19.4,0,38.8,-19.7,38.8,-39.5l0,-192.6c0,-19.6,-19.4,-39.3,-38.8,-39.3l-196,0Z" class="g2_13" />
<path d="M62,749.8c0,4.3,-4.4,8.6,-8.8,8.6l0,34.2c4.4,0,8.8,4.3,8.8,8.6l35.5,0c0,-4.3,4.2,-8.6,8.7,-8.6l0,-34.2c-4.5,0,-8.7,-4.3,-8.7,-8.6l-35.5,0Z" class="g2_13" />
<path d="M114.7,749.8c0,4.3,-4.4,8.6,-8.7,8.6l0,34.2c4.3,0,8.7,4.3,8.7,8.6l35.5,0c0,-4.3,4.3,-8.6,8.8,-8.6l0,-34.2c-4.5,0,-8.8,-4.3,-8.8,-8.6l-35.5,0Z" class="g2_13" />
<path d="M167.6,749.8c0,4.3,-4.4,8.6,-8.9,8.6l0,34.2c4.5,0,8.9,4.3,8.9,8.6l35.3,0c0,-4.3,4.4,-8.6,8.9,-8.6l0,-34.2c-4.5,0,-8.9,-4.3,-8.9,-8.6l-35.3,0Z" class="g2_13" />
<path d="M220.3,749.8c0,4.3,-4.4,8.6,-8.9,8.6l0,34.2c4.5,0,8.9,4.3,8.9,8.6l35.4,0c0,-4.3,4.3,-8.6,8.8,-8.6l0,-34.2c-4.5,0,-8.8,-4.3,-8.8,-8.6l-35.4,0Z" class="g2_13" />
<path d="M273.2,749.8c0,4.3,-4.5,8.6,-8.9,8.6l0,34.2c4.4,0,8.9,4.3,8.9,8.6l35.3,0c0,-4.3,4.4,-8.6,8.8,-8.6l0,-34.2c-4.4,0,-8.8,-4.3,-8.8,-8.6l-35.3,0Z" class="g2_13" />
<path d="M325.9,749.8c0,4.3,-4.5,8.6,-8.9,8.6l0,34.2c4.4,0,8.9,4.3,8.9,8.6l35.3,0c0,-4.3,4.4,-8.6,8.8,-8.6l0,-34.2c-4.4,0,-8.8,-4.3,-8.8,-8.6l-35.3,0Z" class="g2_13" />
<path d="M378.4,749.8c-4.1,0,-8.4,4.3,-8.4,8.6l0,34.2c0,4.3,4.3,8.6,8.4,8.6l35.9,0c4.3,0,8.6,-4.3,8.6,-8.6l0,-34.2c0,-4.3,-4.3,-8.6,-8.6,-8.6l-35.9,0Z" class="g2_13" />
<path d="M431.3,749.8c-4.3,0,-8.6,4.3,-8.6,8.6l0,34.2c0,4.3,4.3,8.6,8.6,8.6l35.9,0c4.1,0,8.4,-4.3,8.4,-8.6l0,-34.2c0,-4.3,-4.3,-8.6,-8.4,-8.6l-35.9,0Z" class="g2_13" />
<path d="M493.6,750.1c-9.1,0,-18.2,4.5,-18.2,8.7l0.3,34.3c0,4.1,9.1,8.4,18.2,8.4l77,-0.6c9,0,18.2,-4.5,18.2,-8.6L589,758.1c-0.2,-4.3,-9.4,-8.6,-18.4,-8.4l-77,0.4Z" class="g2_13" />
<path d="M532.7,749.2l0,52" class="g2_13" />
<path d="M316.3,811.7l0,420.3" class="g2_13" />
<path d="M51.6,1034.2l264.7,0" class="g2_13" />
<path d="M316.1,987.4l268.6,0" class="g2_13" />
</svg>