<?xml version="1.0" encoding="UTF-8" standalone="no"?>
<!DOCTYPE svg PUBLIC "-//W3C//DTD SVG 1.1//EN"
"http://www.w3.org/Graphics/SVG/1.1/DTD/svg11.dtd">
<svg viewBox="0 0 909 1286" version="1.1" xmlns="http://www.w3.org/2000/svg" xmlns:xlink="http://www.w3.org/1999/xlink">
<defs>
<clipPath id="c0_5"><path d="M0,1286.2L0,0.2l909.3,0l0,1286Z" /></clipPath>
<style type="text/css"><![CDATA[
.g1_5{
fill: #FFFFFF;
}
.g2_5{
fill: none;
stroke: #000000;
stroke-width: 0.15277778;
stroke-linecap: butt;
stroke-linejoin: round;
}
]]></style>
</defs>
<g clip-path="url(#c0_5)">
<path fill-rule="evenodd" d="M0,0L909.3,0l0,1286.2L0,1286.2L0,0Z" class="g1_5" />
</g>
<path d="M163.8,14.7C90.6,14.7,17.3,87.8,17.3,161.2l0,948.3c0,73.2,73.3,146.3,146.5,146.3l586.2,0c73.3,0,146.5,-73.1,146.5,-146.3l0,-948.3C896.5,87.8,823.3,14.7,750,14.7l-586.2,0Z" class="g2_5" />
<path d="M259.9,177.5l0,1078.3" class="g2_5" />
<path d="M21.7,177.5l874.8,0" class="g2_5" />
<path d="M90.9,177.5l0,1056.6" class="g2_5" />
<path d="M21.7,216.5l874.8,0" class="g2_5" />
<path d="M21.7,679.9l874.8,0" class="g2_5" />
<path d="M675.6,181.8l4.3,1074" class="g2_5" />
<path d="M17.3,718.8l874.8,0" class="g2_5" />
<path d="M554.3,675.6l0,580.2" class="g2_5" />
</svg>